<?xml version="1.0" encoding="utf-8"?>
<svg viewBox="-128.19 -1369.239 876.8 624.733" xmlns="http://www.w3.org/2000/svg">
  <g transform="matrix(0.809633, 0, 0, 0.809633, -348.312531, -1500.705933)" style="">
    <path class="st74" d="M542.2,739.4c0,3.5-28.1,6.3-62.8,6.3c-34.7,0-62.8-2.8-62.8-6.3s28.1-6.3,62.8-6.3 C514.1,733,542.2,735.9,542.2,739.4z" style="fill: rgb(218, 218, 218);"/>
    <g>
      <g>
        <path class="st75" d="M508.2,561.4c0,0,1.8-8.8,6.8-18.6c2.5-4.9,5.9-10,10.3-14.5c4.4-4.5,9.8-8.2,16.5-10.8 c2.1-0.8,4.3-1.5,6.8-2.4c0.1,2.3-0.2,4.6-0.6,6.8c-1.6,8.3-5.4,15-9.5,20.3c-4.2,5.3-9,9.2-13.5,12 C516,559.9,508.2,561.4,508.2,561.4z" style="fill: rgb(109, 128, 0);"/>
        <path class="st76" d="M508.2,561.4c6-7.1,11.9-14.3,17.6-21.6c5.7-7.3,11.3-14.7,16-22.3c2.1-0.8,4.3-1.5,6.8-2.4 c0.1,2.3-0.2,4.6-0.6,6.8c-6.1,7.4-12.7,13.9-19.4,20.4C522,548.8,515.2,555.2,508.2,561.4z" style="opacity: 0.26; fill: rgb(109, 128, 0);"/>
      </g>
      <g>
        <path class="st75" d="M511.5,505.7c0,0-1.1-12.6,2.7-29.4c1.9-8.4,5-17.8,10.3-26.8c2.7-4.5,5.9-8.9,9.8-12.9 c3.9-4,8.5-7.6,14-9.9c3.4-1.4,7.2-2.2,10.6-1.6c-2.4,2.2-4,4.7-5.4,7.2c-2.7,4.8-4.7,9.7-6.9,14.4c-2.1,4.8-4.2,9.4-6.3,13.8 c-4.3,8.8-8.8,16.8-13,23.5C518.9,497.4,511.5,505.7,511.5,505.7z" style="fill: rgb(109, 128, 0);"/>
        <path class="st76" d="M511.5,505.7c4-13.8,8.7-27.5,14.2-40.8c2.8-6.7,5.9-13.3,9.4-19.7c3.6-6.4,7.5-12.8,13.1-18.4 c3.4-1.4,7.2-2.2,10.6-1.6c-2.4,2.2-4,4.7-5.4,7.2c-5.1,4.2-9.4,9.9-13.4,15.7c-3.9,5.9-7.5,12.1-10.9,18.4 C522.6,479.1,516.7,492.3,511.5,505.7z" style="opacity: 0.26; fill: rgb(109, 128, 0);"/>
      </g>
      <rect x="456.7" y="524.7" class="st77" width="5.1" height="116.5" style="fill: rgb(216, 160, 76);"/>
      <rect x="466.9" y="513.8" class="st78" width="5.9" height="127.3" style="fill: rgb(153, 120, 55);"/>
      <rect x="474.7" y="514.5" class="st77" width="8.1" height="126.6" style="fill: rgb(216, 160, 76);"/>
      <rect x="495.5" y="602.3" class="st77" width="5.9" height="38.8" style="fill: rgb(216, 160, 76);"/>
      <rect x="484.5" y="533.7" class="st78" width="7.3" height="107.4" style="fill: rgb(153, 120, 55);"/>
      <g>
        <path class="st77" d="M503.3,607.8c-1.2,0-2.1-0.3-2.2-0.3l0.6-1.7c0,0,2.1,0.7,3.6-0.3c0.9-0.6,1.4-1.7,1.5-3.2 c0.5-6.1,0-32.3,0-32.6l1.8,0c0,1.1,0.5,26.6,0,32.7c-0.2,2.2-0.9,3.7-2.3,4.6C505.2,607.6,504.2,607.8,503.3,607.8z" style="fill: rgb(216, 160, 76);"/>
      </g>
      <g>
        <path class="st77" d="M459,531.6c-0.8,0-3.5-0.2-5.8-2.4c-2.6-2.4-4-6.4-4-11.9v-52h1.8v52c0,5,1.1,8.5,3.4,10.6 c2.2,2.1,4.7,1.9,4.7,1.9l0.1,1.8C459.3,531.6,459.2,531.6,459,531.6z" style="fill: rgb(216, 160, 76);"/>
      </g>
      <g>
        <rect x="477.2" y="462.3" class="st77" width="3.2" height="55" style="fill: rgb(216, 160, 76);"/>
      </g>
      <g>
        <path class="st78" d="M492,566c-2.1,0-3.9-0.4-4-0.5l0.4-1.7c0.1,0,5.4,1.3,7.9-0.7c0.8-0.7,1.2-1.6,1.2-2.9v-50.4h1.8v50.4 c0,1.9-0.7,3.3-1.9,4.3C495.9,565.7,493.9,566,492,566z" style="fill: rgb(153, 120, 55);"/>
      </g>
      <g>
        <path class="st75" d="M478.6,462.3c0,0-2.9-9.7-3.7-23.6c-0.4-7-0.2-15,1.2-23.2c0.7-4.1,1.7-8.2,3.2-12.2 c1.5-3.9,3.4-7.8,6-10.8c1.6-1.9,3.5-3.5,5.5-3.7c-0.7,2.5-0.9,4.9-1.1,7.3c-0.3,4.5-0.4,8.8-0.6,13.1 c-0.2,4.2-0.5,8.3-0.9,12.2c-0.8,7.8-2.1,14.9-3.5,21C481.9,454.5,478.6,462.3,478.6,462.3z" style="fill: rgb(109, 128, 0);"/>
        <path class="st76" d="M478.6,462.3c0.1-11.6,0.6-23.2,1.4-34.9c0.4-5.8,1-11.6,1.7-17.4c0.8-5.8,1.7-11.6,3.5-17.5 c1.6-1.9,3.5-3.5,5.5-3.7c-0.7,2.5-0.9,4.9-1.1,7.3c-1.8,4.5-3.2,9.9-4.3,15.3c-1.1,5.4-2.1,11-2.9,16.7 C480.8,439.3,479.5,450.8,478.6,462.3z" style="opacity: 0.26; fill: rgb(109, 128, 0);"/>
      </g>
      <g>
        <path class="st75" d="M478.5,467.3c0,0-7.9-1.6-16.1-3c-4.1-0.7-8.1-1.4-11.8-2.2c-3.7-0.9-7.2-2.1-12.8-3.9 c-1.7-0.6-3.7-1.2-5.8-1.8c1.1-1.3,2.4-2.4,3.9-3.4c2.9-1.9,6.5-3.1,10.2-3.7c3.7-0.6,7.6-0.5,11,0.1c6.9,1.2,12,4.1,15.2,6.9 c3.2,2.8,4.7,5.7,5.5,7.7C478.6,466,478.5,467.3,478.5,467.3z" style="fill: rgb(109, 128, 0);"/>
        <path class="st76" d="M478.5,467.3c-2.8-2.1-5.9-3.9-9.1-5.4c-3.3-1.5-6.7-2.8-10.3-3.7c-7.2-1.8-14.8-1.9-21.2-0.1 c-1.7-0.6-3.7-1.2-5.8-1.8c1.1-1.3,2.4-2.4,3.9-3.4c4.2-0.6,8.6-0.7,12.9-0.2c4.2,0.5,8.2,1.6,11.9,3c3.6,1.4,6.9,3.1,9.9,5.1 C473.6,462.8,476.2,464.9,478.5,467.3z" style="opacity: 0.26; fill: rgb(109, 128, 0);"/>
      </g>
      <g>
        <path class="st79" d="M458.5,564.5c0,0-7.6-5-15.3-13.2c-3.9-4.1-7.7-9-10.8-14.5c-3.1-5.5-5.2-11.6-6.5-18.3 c-0.4-2.1-0.7-4.3-1.6-6.6c2.4,0.2,4.8,1.1,6.9,2.1c4.1,2,7.4,4.5,10.3,7.2c2.9,2.7,5.2,5.6,7.2,8.4c3.9,5.8,6.3,11.6,7.7,16.8 C459.4,556.9,458.5,564.5,458.5,564.5z" style="fill: rgb(119, 133, 7);"/>
        <path class="st80" d="M458.5,564.5c-4.8-8.2-9.9-16.2-15.2-24.1c-2.7-3.9-5.4-7.8-8.3-11.5c-2.9-3.7-5.9-7.4-9.1-10.4 c-0.4-2.1-0.7-4.3-1.6-6.6c2.4,0.2,4.8,1.1,6.9,2.1c3.3,3.9,5.8,8,8.3,12.2c2.4,4.2,4.7,8.4,6.9,12.6 C450.8,547.3,454.8,555.9,458.5,564.5z" style="opacity: 0.35; fill: rgb(119, 133, 7);"/>
      </g>
      <g>
        <path class="st81" d="M457,565.3c0,0-7.2,3.8-16.5,5.5c-9.4,1.7-20.8,1.5-30.8-7c-1.6-1.3-3.1-2.9-4.7-4.6 c1.7-1.2,3.5-2.2,5.2-3c13.3-6.4,25.5-4,33.8-0.1C452.3,559.9,457,565.3,457,565.3z" style="fill: rgb(135, 171, 0);"/>
        <path class="st80" d="M457,565.3c-15.9-1.3-31.7-1.9-47.4-1.5c-1.6-1.3-3.1-2.9-4.7-4.6c1.7-1.2,3.5-2.2,5.2-3 C426,558.4,441.5,561.5,457,565.3z" style="opacity: 0.35; fill: rgb(119, 133, 7);"/>
      </g>
      <g>
        <path class="st75" d="M451,493.9c0,0-8.7,3.3-19.9,4.8c-5.6,0.8-11.8,1.1-18.2,0.4c-6.4-0.7-12.8-2.6-19.4-6.1 c-2.1-1.1-4.2-2.4-6.4-3.8c1.9-1.5,3.9-2.8,5.9-3.8c7.7-4.1,15.8-5.4,22.9-5.2c7.2,0.2,13.5,1.8,18.8,3.9 C445.1,488.1,451,493.9,451,493.9z" style="fill: rgb(109, 128, 0);"/>
        <path class="st76" d="M451,493.9c-9.7-1.2-19.3-1.9-28.9-2.2c-9.6-0.2-19.2,0-28.5,1.2c-2.1-1.1-4.2-2.4-6.4-3.8 c1.9-1.5,3.9-2.8,5.9-3.8c10,0,19.7,1.1,29.4,2.6C432,489.5,441.5,491.5,451,493.9z" style="opacity: 0.26; fill: rgb(109, 128, 0);"/>
      </g>
      <g>
        <path class="st79" d="M500.2,508.5c0,0.1-2.8-8.8-1.2-20.8c0.8-5.9,2.7-12.6,6.7-18.7c2-3.1,4.5-6,7.5-8.4 c3-2.5,6.7-4.5,10.7-5.5c2.5-0.6,5.2-0.9,7.8-0.5c-1,2.1-1.9,4.2-2.6,6.1c-1.4,3.7-2.5,7.1-3.8,10.3c-1.2,3.2-2.5,6.2-3.9,9 c-2.8,5.6-5.9,10.6-9,14.8C506.1,503.2,500.2,508.5,500.2,508.5z" style="fill: rgb(119, 133, 7);"/>
        <path class="st80" d="M500.2,508.5c1.9-9.3,4.7-18.7,8.3-27.7c1.8-4.5,3.9-9,6.4-13.3c2.5-4.3,5.4-8.5,9-12.4 c2.5-0.6,5.2-0.9,7.8-0.5c-1,2.1-1.9,4.2-2.6,6.1c-6.9,5.6-12.4,13.6-17.1,21.8C507.3,490.6,503.3,499.5,500.2,508.5z" style="opacity: 0.35; fill: rgb(119, 133, 7);"/>
      </g>
      <g>
        <path class="st81" d="M478.9,467.3c0,0-8.1-4.8-16.7-12.3c-4.3-3.8-8.7-8.3-12.4-13.5c-3.8-5.2-6.7-11-9.1-17.9 c-0.8-2.2-1.6-4.5-2.5-7c2.4,0,4.9,0.3,7.2,0.9c4.4,1.2,8.4,3.2,11.8,5.5c3.4,2.3,6.3,5,8.7,7.9c4.9,5.6,7.9,11.7,9.9,17.1 C479.6,459,478.9,467.3,478.9,467.3z" style="fill: rgb(135, 171, 0);"/>
        <path class="st80" d="M478.9,467.3c-5.4-8.4-11.2-16.4-17.5-23.9c-6.3-7.4-13.1-14.6-20.7-19.8c-0.8-2.2-1.6-4.5-2.5-7 c2.4,0,4.9,0.3,7.2,0.9c7.8,7,13.7,15.2,19.1,23.6C469.9,449.6,474.6,458.3,478.9,467.3z" style="opacity: 0.35; fill: rgb(119, 133, 7);"/>
      </g>
      <g>
        <path class="st81" d="M507.1,583.2c0,0-0.1-2.1,0.6-5.5c0.7-3.4,2.3-8.1,5.5-12.8c3.2-4.7,8.3-9.4,15.1-11.9 c3.3-1.2,7.1-1.9,10.8-1.7c3.7,0.2,7.4,1.3,10.7,3.2c2,1.2,3.9,2.8,5.4,4.7c-2,1-3.8,2-5.4,2.9c-6.3,3.6-10.8,6.5-15.2,8.9 c-4.3,2.4-8.6,4.4-12.6,6.1C514,580.8,507.1,583.3,507.1,583.2z" style="fill: rgb(135, 171, 0);"/>
        <path class="st80" d="M507.1,583.2c4.2-7.3,10.1-13.9,17.2-19.1c7.1-5.2,15.9-8.8,25.4-9.5c2,1.2,3.9,2.8,5.4,4.7 c-2,1-3.8,2-5.4,2.9c-7.9-0.6-16.1,1.3-23.4,5.1C519,571.2,512.4,576.7,507.1,583.2z" style="opacity: 0.35; fill: rgb(119, 133, 7);"/>
      </g>
      <g>
        <path class="st79" d="M451,475.2c0,0-8.7-0.7-18.9-3.7c-5.1-1.5-10.6-3.7-15.7-6.6c-5.2-2.9-9.7-6.7-14.1-11.4 c-1.4-1.5-2.8-3-4.6-4.6c2-1,4.3-1.5,6.5-1.7c4.3-0.5,8.4,0,12.1,0.7c3.7,0.8,7.1,2,10.1,3.4c6.1,2.8,10.9,6.5,14.5,10.1 C448.3,468.6,451,475.2,451,475.2z" style="fill: rgb(119, 133, 7);"/>
        <path class="st80" d="M451,475.2c-7.8-4.5-15.8-8.7-23.9-12.6c-4.1-1.9-8.2-3.7-12.3-5.3c-4.1-1.6-8.4-3-12.4-3.8 c-1.4-1.5-2.8-3-4.6-4.6c2-1,4.3-1.5,6.5-1.7c4.7,1.5,8.8,3.6,12.9,5.7c4,2.2,7.9,4.5,11.7,6.9 C436.6,464.7,443.9,469.8,451,475.2z" style="opacity: 0.35; fill: rgb(119, 133, 7);"/>
      </g>
      <g>
        <path class="st75" d="M478.6,503.2c0-0.1-6.4-3.7-12.5-8.3c-3-2.3-6-5-8.2-8.2c-2.3-3.3-3.8-7.2-4.6-12.8 c-0.3-1.8-0.5-3.7-0.7-5.9c1.9-0.2,3.7-0.2,5.5,0c6.7,0.7,12.1,4,15.6,8c3.6,4,5.5,8.7,6.2,12.8 C481.4,497.2,478.6,503.2,478.6,503.2z" style="fill: rgb(109, 128, 0);"/>
        <path class="st80" d="M478.6,503.2c-2.9-6.3-6.6-11.8-10.9-16.8c-4.3-5-9.1-9.3-14.4-12.5c-0.3-1.8-0.5-3.7-0.7-5.9 c1.9-0.2,3.7-0.2,5.5,0c5.2,4.8,9.4,10.4,12.8,16.3C474.3,490.3,476.9,496.5,478.6,503.2z" style="opacity: 0.35; fill: rgb(119, 133, 7);"/>
      </g>
      <g>
        <path class="st81" d="M481.9,486.7c0,0,1.8-9.5,6.9-20.3c2.6-5.4,6-11.2,10.4-16.5c4.5-5.3,10-9.9,16.8-13.5 c2.2-1.2,4.4-2.2,6.9-3.4c0.1,2.5,0,5-0.4,7.3c-1.4,9-5.1,16.6-9.3,22.7c-4.3,6.1-9.2,10.8-13.9,14.3 C490,484.3,481.9,486.7,481.9,486.7z" style="fill: rgb(135, 171, 0);"/>
        <path class="st82" d="M481.9,486.7c6.2-8.1,12.3-16.4,18.1-24.7c5.8-8.4,11.5-16.9,16.1-25.6c2.2-1.2,4.4-2.2,6.9-3.4 c0.1,2.5,0,5-0.4,7.3c-6.1,8.6-12.8,16.4-19.6,24C496.1,472,489.1,479.4,481.9,486.7z" style="opacity: 0.7; fill: rgb(88, 153, 53);"/>
      </g>
      <g>
        <path class="st79" d="M451,467.3c0,0-8.3-5.7-16.8-15.1c-4.3-4.7-8.6-10.3-12.1-16.7c-3.5-6.4-6-13.5-7.4-21.4 c-0.5-2.5-0.8-5-1.5-7.8c2.6,0.5,5,1.6,7.2,2.8c8.5,4.8,14.5,11.5,18.9,18c4.4,6.6,7.1,13.3,8.8,19.3 C451.6,458.4,451,467.3,451,467.3z" style="fill: rgb(119, 133, 7);"/>
        <path class="st80" d="M451,467.3c-5.5-9.4-11.2-18.6-17.1-27.6c-3-4.5-6-9-9.2-13.3c-3.2-4.3-6.5-8.5-10-12.3 c-0.5-2.5-0.8-5-1.5-7.8c2.6,0.5,5,1.6,7.2,2.8c3.4,4.6,6.2,9.3,9,14.1c2.7,4.8,5.3,9.6,7.7,14.5 C442,447.5,446.6,457.3,451,467.3z" style="opacity: 0.35; fill: rgb(119, 133, 7);"/>
      </g>
      <g>
        <path class="st79" d="M459.2,543.6c0,0,1.7-1.2,4.1-3.1c2.4-1.9,5.5-4.5,8.8-7.2c3.3-2.7,6.7-5.4,10.6-7.6 c3.9-2.2,8.5-3.9,14.7-5c1.9-0.4,4.1-0.7,6.4-0.9c0,2.1-0.3,4.1-0.7,6c-1.6,7.3-6.1,13.2-11.4,16.9c-5.3,3.7-11.2,5.3-16.3,5.5 c-5.1,0.2-9.2-0.9-12-2.1C460.6,544.7,459.2,543.6,459.2,543.6z" style="fill: rgb(119, 133, 7);"/>
        <path class="st80" d="M459.2,543.6c16.1-1.9,29.7-11.1,38.2-23c1.9-0.4,4.1-0.7,6.4-0.9c0,2.1-0.3,4.1-0.7,6 C491.4,537.2,475.4,544.2,459.2,543.6z" style="opacity: 0.35; fill: rgb(119, 133, 7);"/>
      </g>
      <g>
        <path class="st81" d="M507.8,580.9c0,0-5.5-5.8-9.4-16.4c-1.9-5.3-3.4-11.7-3.2-18.9c0.1-3.6,0.6-7.3,1.8-10.9 c1.2-3.6,3.1-7.2,5.8-9.9c1.7-1.6,3.7-2.8,5.7-3c-0.4,2.3-0.3,4.3-0.2,6.2c0.3,3.6,0.8,6.7,1.2,9.9c0.4,3.1,0.8,6.1,1,9.1 c0.4,5.9,0.3,11.5-0.1,16.5C509.8,573.5,507.8,580.9,507.8,580.9z" style="fill: rgb(135, 171, 0);"/>
        <path class="st80" d="M507.8,580.9c-2.5-8.6-4.5-17.6-5.7-26.9c-0.6-4.6-1.1-9.3-1.1-14.2c0-4.8,0.3-9.8,1.9-15 c1.7-1.6,3.7-2.8,5.7-3c-0.4,2.3-0.3,4.3-0.2,6.2c-1.5,3.5-2.4,7.7-2.8,12.1c-0.5,4.4-0.6,8.9-0.4,13.5 C505.4,562.7,506.3,571.9,507.8,580.9z" style="opacity: 0.35; fill: rgb(119, 133, 7);"/>
      </g>
      <g>
        <path class="st81" d="M460.1,577.3c0,0-0.4-6.5,2.3-13.2c1.3-3.4,3.4-6.7,6.4-9.1c3-2.4,6.9-3.7,11.4-2.7 c1.4,0.3,2.9,0.8,4.3,1.6c-0.5,1.6-0.9,3-1.4,4.3c-1.8,5-3.8,8.5-6.1,11.1c-2.3,2.6-4.9,4.2-7.4,5.4 C464.8,577,460.1,577.3,460.1,577.3z" style="fill: rgb(135, 171, 0);"/>
        <path class="st80" d="M460.1,577.3c2.7-4.6,5.8-9.1,9.1-13.3c3.3-4.2,7-8.2,11-11.8c1.4,0.3,2.9,0.8,4.3,1.6 c-0.5,1.6-0.9,3-1.4,4.3C474.8,563,467,569.7,460.1,577.3z" style="opacity: 0.35; fill: rgb(119, 133, 7);"/>
      </g>
      <g>
        <path class="st79" d="M502,606.9c0,0.1-6.4-1.2-12.2-5.6c-2.9-2.1-5.7-5-7.2-8.5c-1.5-3.5-1.8-7.6,0.2-11.7 c0.6-1.3,1.5-2.6,2.6-3.8c1.4,0.8,2.7,1.6,3.8,2.4c4.4,3,7.3,5.8,9.2,8.7c1.9,2.9,2.9,5.8,3.4,8.5 C502.9,602.3,502,606.9,502,606.9z" style="fill: rgb(119, 133, 7);"/>
        <path class="st80" d="M502,606.9c-3.8-3.7-7.3-7.9-10.6-12.1c-3.2-4.3-6.2-8.8-8.6-13.6c0.6-1.3,1.5-2.6,2.6-3.8 c1.4,0.8,2.7,1.6,3.8,2.4C491.8,589.1,496.3,598.3,502,606.9z" style="opacity: 0.35; fill: rgb(119, 133, 7);"/>
      </g>
      <g>
        <path class="st83" d="M451.1,505.5c0,0,0.4-2.2,0.9-5.6c0.5-3.4,1-8,1.7-12.9c0.7-5,1.6-10.3,3.3-15.6c1.6-5.3,4-10.7,7.9-16.1 c1.2-1.7,2.6-3.4,4.1-5.1c0.8,2,1.5,4.1,2.1,6.1c2.1,7.8,1.9,15.6,0.4,22.3c-1.5,6.7-4.3,12.4-7.4,16.6 c-3.1,4.2-6.3,6.9-8.8,8.4C452.8,505.1,451.1,505.5,451.1,505.5z" style="fill: rgb(132, 158, 8);"/>
        <path class="st80" d="M451.1,505.5c2.5-3.7,4.3-7.6,5.9-11.7c1.6-4.1,2.9-8.3,4-12.5c2.2-8.5,3.3-17.3,3.8-26 c1.2-1.7,2.6-3.4,4.1-5.1c0.8,2,1.5,4.1,2.1,6.1c-1.5,9.1-3.8,18-7,26.3c-1.6,4.2-3.4,8.3-5.5,12.1 C456.3,498.6,454,502.3,451.1,505.5z" style="opacity: 0.35; fill: rgb(119, 133, 7);"/>
      </g>
      <g>
        <path class="st81" d="M460.1,526.8c0,0,0.4-2.2,1-5.6c0.6-3.4,1.3-8,2.3-12.9c1-4.9,2.2-10.1,4.3-15.3c2-5.2,4.9-10.3,9.4-15.7 c1.4-1.7,3-3.4,4.8-5.2c1.1,2,2.1,4,2.8,6c2.8,7.8,2.5,15.7,0.5,22.5c-2,6.8-5.6,12.3-9.4,16.3c-3.8,4-7.8,6.5-10.8,7.9 C462,526.4,460.1,526.8,460.1,526.8z" style="fill: rgb(135, 171, 0);"/>
        <path class="st80" d="M460.1,526.8c2.9-3.7,5.2-7.5,7.3-11.5c2.1-4,3.8-8.1,5.2-12.3c2.8-8.4,4.4-17,4.6-25.6 c1.4-1.7,3-3.4,4.8-5.2c1.1,2,2.1,4,2.8,6c-1.6,9.2-4.5,18-8.7,26.3C471.9,512.7,466.7,520.3,460.1,526.8z" style="opacity: 0.35; fill: rgb(119, 133, 7);"/>
      </g>
      <g>
        <path class="st81" d="M498,519.7c0,0.1,1-9.5,8-20c3.5-5.2,8.6-10.6,15.5-14.3c3.4-1.8,7.3-3.2,11.5-3.8 c4.1-0.6,8.6-0.3,12.6,1.2c2.5,0.9,4.9,2.3,6.9,4.1c-2.2,1.1-4.1,2.3-5.9,3.4c-3.4,2.2-6.2,4.4-8.9,6.5c-2.7,2.1-5.3,4-7.9,5.8 c-5.1,3.6-10.2,6.7-14.9,9.2C505.7,517,498,519.8,498,519.7z" style="fill: rgb(135, 171, 0);"/>
        <path class="st80" d="M498,519.7c5.7-8.1,12.4-15.6,20.1-22.3c3.9-3.3,8-6.3,12.6-8.9c4.6-2.6,9.6-4.6,15-5.7 c2.5,0.9,4.9,2.3,6.9,4.1c-2.2,1.1-4.1,2.3-5.9,3.4c-9.1,0.6-18.2,4.8-26.3,10.1C512.2,505.9,504.6,512.5,498,519.7z" style="opacity: 0.35; fill: rgb(119, 133, 7);"/>
      </g>
      <g>
        <path class="st81" d="M460,526.9c0,0-7.2-1.6-14.6-7.3c-3.6-2.8-7.3-6.7-9.8-11.7c-2.5-4.9-3.9-11.2-2.4-17.6 c0.5-2,1.3-4,2.4-5.8c1.3,1.4,2.6,2.6,3.8,3.7c4.6,4.3,8.2,8.2,11,12.3c2.8,4.1,4.8,8.3,6.2,12.2 C459.4,520.5,460,526.9,460,526.9z" style="fill: rgb(135, 171, 0);"/>
        <path class="st80" d="M460,526.9c-5.3-5.2-10.3-10.8-14.9-16.8c-4.6-6-8.9-12.3-11.9-19.8c0.5-2,1.3-4,2.4-5.8 c1.3,1.4,2.6,2.6,3.8,3.7c1.7,6.8,4.9,13.6,8.4,20C451.5,514.7,455.5,521,460,526.9z" style="opacity: 0.35; fill: rgb(119, 133, 7);"/>
      </g>
      <g>
        <g>
          <path class="st79" d="M478.6,473.4c0,0-1.1-12.6,2.7-29.3c1.9-8.4,5-17.8,10.3-26.8c2.7-4.5,5.8-8.9,9.8-12.9 c3.9-4,8.5-7.6,14-9.9c3.4-1.4,7.2-2.2,10.6-1.6c-2.4,2.2-4,4.7-5.4,7.2c-2.7,4.8-4.7,9.7-6.8,14.4c-2.1,4.8-4.2,9.4-6.3,13.8 c-4.3,8.8-8.8,16.8-13,23.5C486,465.1,478.6,473.4,478.6,473.4z" style="fill: rgb(119, 133, 7);"/>
          <path class="st80" d="M478.6,473.4c4-13.8,8.7-27.5,14.2-40.8c2.8-6.7,5.8-13.3,9.4-19.7c3.6-6.4,7.5-12.8,13.1-18.4 c3.4-1.4,7.2-2.2,10.6-1.6c-2.4,2.2-4,4.7-5.4,7.2c-5.1,4.2-9.4,9.9-13.4,15.7c-3.9,5.9-7.5,12.1-10.9,18.4 C489.7,446.8,483.8,460,478.6,473.4z" style="opacity: 0.35; fill: rgb(119, 133, 7);"/>
        </g>
      </g>
      <g>
        <path class="st75" d="M478.1,518.7c0,0-0.1-1.6,0.6-4.3c0.7-2.6,2.2-6.3,5.3-10c3.1-3.7,7.8-7.5,14.2-10 c6.3-2.5,14.3-3.6,21.8-1.9c2.3,0.5,4.6,1.3,6.7,2.3l-4.9,3.2c-5.8,3.8-10.5,6.7-15.1,9.2c-4.6,2.4-9.1,4.4-13.3,6.1 C485.1,516.6,478.1,518.8,478.1,518.7z" style="fill: rgb(109, 128, 0);"/>
        <path class="st80" d="M478.1,518.7c4.4-5.8,10.3-11.1,17.3-15.7c7-4.6,15.3-8.3,24.6-10.5c2.3,0.5,4.6,1.3,6.7,2.3l-4.9,3.2 C504.8,500.3,489.1,508.3,478.1,518.7z" style="opacity: 0.35; fill: rgb(119, 133, 7);"/>
      </g>
      <polygon class="st84" points="516.4,641.1 515.8,650 510.1,740.3 448,740.3 442.3,650 441.8,641.1 &#9;&#9;&#9;" style="fill: rgb(114, 145, 150);"/>
      <polygon class="st85" points="516.4,641.1 515.8,650 442.3,650 441.8,641.1 &#9;&#9;&#9;" style="opacity: 0.5; fill: rgb(114, 145, 150);"/>
      <polygon class="st86" points="516.4,641.1 515.8,650 510.1,740.3 479.1,740.3 479.1,641.1 &#9;&#9;&#9;" style="opacity: 0.36; fill: rgb(114, 145, 150);"/>
    </g>
  </g>
  <g transform="matrix(0.809633, 0, 0, 0.809633, -348.312531, -1500.705933)" style="">
    <g>
      <polygon class="st87" points="898.1,336.1 889.2,246.7 954.5,237.8 948.1,336.1 &#9;&#9;&#9;" style="fill: rgb(248, 194, 151);"/>
      <path class="st87" d="M884.1,291c0-4.8,3.9-8.7,8.7-8.7s8.7,3.9,8.7,8.7c0,4.8-3.9,8.7-8.7,8.7S884.1,295.8,884.1,291z" style="fill: rgb(248, 194, 151);"/>
      <path class="st87" d="M960.1,291c0-4.8-3.9-8.7-8.7-8.7s-8.7,3.9-8.7,8.7c0,4.8,3.9,8.7,8.7,8.7S960.1,295.8,960.1,291z" style="fill: rgb(248, 194, 151);"/>
      <g>
        <path class="st12" d="M906.8,286.1c-0.4,0.1-0.8,0.1-1.2,0.1c-3.8-0.1-7.7-3.5-7.8-8.9l1.7,0c0.1,4.4,3.2,7.1,6.2,7.2 c2.6,0.1,5.6-1.8,6.1-7.5l1.7,0.2C913,283.2,909.8,285.7,906.8,286.1z" style="fill: rgb(26, 50, 66);"/>
        <path class="st12" d="M936.4,286.1c-0.4,0.1-0.8,0.1-1.2,0.1c-3.8-0.1-7.7-3.5-7.8-8.9l1.7,0c0.1,4.4,3.2,7.1,6.2,7.2 c2.6,0.1,5.6-1.8,6.1-7.5l1.7,0.2C942.6,283.2,939.4,285.7,936.4,286.1z" style="fill: rgb(26, 50, 66);"/>
        <path class="st12" d="M916.1,325.4v-1.7c7.9,0,18.2-4.4,22.4-12.9l1.5,0.8C935.5,320.6,924.5,325.4,916.1,325.4z" style="fill: rgb(26, 50, 66);"/>
        <polygon class="st12" points="924.4,306.4 911.5,306.4 918.7,276.9 920.7,277.3 914.1,304.4 924.4,304.4 &#9;&#9;&#9;&#9;" style="fill: rgb(26, 50, 66);"/>
      </g>
      <path class="st88" d="M957,257.2c4.5-5.8,7.6-16.1,7.6-27.6L881.8,244l13.6,64l-2-39c4.9-4.5,6.2-8.7,6.5-17.1 c5.6,11.1,25.5,16.8,49,10.9l1.3,41L957,257.2z" style="fill: rgb(118, 57, 16);"/>
    </g>
    <path class="st89" d="M1003.1,745.2l-38.9-203.3c-2.6-17.3-0.6-27.6-0.6-45.9c3.1-83.4-4.6-111-15.4-160.1h-50 c-11.4,51.6-17,72.9-15.5,168.8c0.1,9,0.2,18.5,1.2,30.8l18.6,208.8l-19.1,16.5h35.4l6.4-218.9h1.3l61.7,219.4h37.1L1003.1,745.2z " style="fill: rgb(50, 144, 147);"/>
    <path class="st87" d="M784.8,347.9c6.5,1.7,8.3,3.8,14.2,6.4l6.5-2.5l-0.1-6.6c-4.3-3.2-5.5-4-9.4-7.7c-5.5-4.5-7.7-11.7-10.1-8.5 c-1.5,2,1,4.6,2.8,7.2C789.7,338.3,781.7,346,784.8,347.9z" style="fill: rgb(248, 194, 151);"/>
    <path class="st89" d="M886.7,339.8c-38.5,58.2-58.6,20.5-81.2,5.5l-6.5,9.1c29.1,45.3,57.1,71.6,106.5,0.8 C917.5,342.1,895.9,327.9,886.7,339.8z" style="fill: rgb(50, 144, 147);"/>
    <path class="st87" d="M960.2,505.1l10.1-6l1.7,6.2c2.5,29.4-7.7,27.1-15.8,25.6c-4.2-1.2,5.2-16.8-0.5-15.1 c-4.6,1.8-4.9,8.6-8.8,6.4c-1.9-0.9,3.8-10.7,8.8-12.9C958.1,508.2,958.8,507.2,960.2,505.1z" style="fill: rgb(248, 194, 151);"/>
    <path class="st0" d="M779.5,357v-0.5c0-2.6,9.9-1.2,9.9-4.2v-14.2c0-2.4-2.6-5-5.7-6.7c-6-3.3-10-6.3-9-15.6h32.8 c0.9,9.4-3,12.3-9,15.6c-3.1,1.7-5.7,4.4-5.7,6.7v14.2c0,2.9,9.9,1.6,9.9,4.2v0.5H779.5z" style="fill: rgb(255, 255, 255);"/>
    <path class="st89" d="M950.1,335c-16.3,8.3-18.7,21.3-18.7,32.8c20.8,22.3,43.9,70.8,28.7,137.3l11.8,0.1 C987.2,463.1,977.9,372.9,950.1,335z" style="fill: rgb(50, 144, 147);"/>
    <path class="st87" d="M923,366.5c8.2-9.3,11.1-21.2,11.1-30.7h-22.2C911.9,345.3,914.9,357.3,923,366.5z" style="fill: rgb(248, 194, 151);"/>
  </g>
  <g transform="matrix(0.809633, 0, 0, 0.809633, -348.312531, -1500.705933)" style="">
    <path class="st74" d="M1238,773.8c0,4.7-167.9,8.6-375,8.6s-375-3.8-375-8.6c0-4.7,167.9-8.6,375-8.6S1238,769,1238,773.8z" style="fill: rgb(218, 218, 218);"/>
    <g>
      <g>
        <polygon class="st90" points="490.6,555.5 531.7,551.3 586.9,551.3 547.3,563.5 &#9;&#9;&#9;&#9;" style="fill: rgb(24, 116, 196);"/>
        <polygon class="st90" points="1235.3,555.5 1194.2,551.3 1139,551.3 1178.6,563.5 &#9;&#9;&#9;&#9;" style="fill: rgb(24, 116, 196);"/>
        <path class="st91" d="M1139,485.7v124.7c0,18.3-15,33.3-33.3,33.3H620.2c-18.3,0-33.3-15-33.3-33.3V485.7 c0-6.1,1.7-11.8,4.5-16.7c5.8-9.9,16.5-16.6,28.8-16.6h485.5c12.3,0,23,6.7,28.8,16.6C1137.4,473.9,1139,479.6,1139,485.7z" style="fill: rgb(10, 68, 89);"/>
        <rect x="548.6" y="606.4" class="st92" width="628.8" height="27" style="fill: rgb(234, 111, 94);"/>
        <polygon class="st93" points="545,555.3 586.9,551.3 586.9,606.4 567.5,619.9 &#9;&#9;&#9;&#9;" style="fill: rgb(16, 102, 134);"/>
        <polygon class="st93" points="1180.8,555.3 1139,551.3 1139,606.4 1158.4,619.9 &#9;&#9;&#9;&#9;" style="fill: rgb(16, 102, 134);"/>
        <path class="st91" d="M593.3,727.1c0.9,3.9-1.6,7.1-5.6,7.1h-48.2c-4,0-8.2-3.2-9.2-7.1l-43.4-164.7c-1-3.9,1.4-7.1,5.5-7.1 h52.3c4,0,8.1,3.2,9.1,7.1L593.3,727.1z" style="fill: rgb(10, 68, 89);"/>
        <path class="st91" d="M1132.6,727.1c-0.9,3.9,1.6,7.1,5.6,7.1h48.2c4,0,8.2-3.2,9.2-7.1l43.4-164.7c1-3.9-1.4-7.1-5.5-7.1h-52.3 c-4,0-8.1,3.2-9.1,7.1L1132.6,727.1z" style="fill: rgb(10, 68, 89);"/>
        <rect x="566" y="653.5" class="st91" width="598.4" height="80.7" style="fill: rgb(10, 68, 89);"/>
        <path class="st94" d="M1152.4,660c-2.5,11.2-16.6,20.3-28.1,20.3H601.6c-11.5,0-25.6-9.2-28.1-20.3l-7.7-35.2 c-2.5-11.2,7.7-20.3,19.1-20.3H1141c11.5,0,21.6,9.2,19.1,20.3L1152.4,660z" style="fill: rgb(8, 57, 74);"/>
        <path class="st95" d="M1157.6,619.9c0,0.7,0,1.4-0.2,2.2l-7.7,35.2c-2.5,11.2-13.8,20.4-25.3,20.4H601.6 c-11.5,0-22.8-9.2-25.3-20.4l-7.7-35.2c-0.2-0.7-0.3-1.5-0.3-2.2c-0.5-11.6,17.8-18.2,20.8-18.2h549.1 C1140.5,601.9,1157.4,609.8,1157.6,619.9z" style="fill: rgb(8, 91, 122);"/>
        <polygon class="st96" points="563.3,774.6 552.2,774.6 561.9,734.2 589.8,734.2 &#9;&#9;&#9;&#9;" style="fill: rgb(91, 55, 23);"/>
        <polygon class="st96" points="1162.7,774.6 1173.7,774.6 1164.1,734.2 1136.1,734.2 &#9;&#9;&#9;&#9;" style="fill: rgb(91, 55, 23);"/>
        <path class="st97" d="M1157.1,625.6H569.4c-6.9-16.7,16.7-23.8,19.7-23.8h549.1C1140.5,601.9,1161.9,610.7,1157.1,625.6z" style="fill: rgb(24, 121, 158);"/>
        <path class="st97" d="M1134.5,469H591.4c5.8-9.9,16.5-16.6,28.8-16.6h485.5C1118,452.4,1128.7,459.1,1134.5,469z" style="fill: rgb(24, 121, 158);"/>
      </g>
      <g>
        <path class="st98" d="M1137.3,548.5c1.7-0.9,3.4-1.8,5.1-2.7c-0.5,5.5-1,12.4-1.2,21.8c-0.3,18.2,0.1,31.8,0.4,38.3 c0.1,2.8,0.2,4.4,0.2,4.4c0,1.2-0.5,2.2-1.3,2.9c-0.7,0.6-1.5,0.9-2.5,0.9l0,0c-0.1,0-0.2,0-0.3,0c0,0-2.5-0.3-8-0.6 c-6.9-0.4-18.6-0.9-36.4-1.2c-32.1-0.5-44.5,0.3-44.5,0.3c-2.3,0.2-4-1.6-4.1-3.9c-0.1-4.1,0.1-7.2,0.4-11.1 c0.5-6.3,1.4-14.5,1.7-31.5c0.3-15.5-0.2-23.7-0.5-29.8c-0.3-4.7-0.4-8.2-0.2-12.8c0.1-2.3,1.9-4,4.2-3.8c0,0,17.4,1.4,44.4,1.9 c16.3,0.3,28.6,0.1,36.1-0.1c4.4-0.1,7.1-0.2,8-0.3C1139.4,529.1,1138.1,535.5,1137.3,548.5z" style="opacity: 0.5; fill: rgb(198, 198, 198);"/>
        <g>
          <g>
            <path class="st99" d="M1040.2,603.5c0.1,2.3,1.8,4,4.1,3.9c0,0,12.3-0.8,44.5-0.3c17.8,0.3,29.5,0.8,36.4,1.2 c5.6,0.3,8,0.6,8,0.6c0.1,0,0.2,0,0.3,0l0,0c2.1,0,3.8-1.6,3.8-3.7c0,0-0.1-1.5-0.2-4.4c-0.3-6.5-0.7-20.1-0.4-38.3 c0.4-24.2,3-31.6,2.1-42.6c-0.2-2.3-1.8-4-4.1-3.9c0,0-0.1,0-0.2,0c-2,0.1-18.1,0.8-44.3,0.3c-27-0.5-44.4-1.9-44.4-1.9 c-2.3-0.2-4,1.5-4.2,3.8c-0.3,4.6-0.1,8.1,0.2,12.8c0.3,6.1,0.8,14.3,0.5,29.8c-0.3,17-1.2,25.2-1.7,31.5 C1040.3,596.2,1040.1,599.4,1040.2,603.5z" style="fill: rgb(65, 184, 187);"/>
          </g>
          <path class="st99" d="M1138.8,519.9c0,0.4,0.1,0.9,0.1,1.3c0.5,7.9-0.8,14.3-1.7,27.3c-0.3,4-0.5,8.5-0.6,13.9 c-0.3,18.2,0.1,31.8,0.4,38.3c0.1,2.8,0.2,4.4,0.2,4.4c0,2.1-1.7,3.8-3.8,3.7l0,0c-1.9-2.7-3.6-6-5.1-9.8 c-1.6-4-3-8.4-4.2-13.2c-1.3-5.5-2.3-11.4-2.9-17.5c-0.3-3.4-0.5-6.8-0.6-10.2c0-0.1,0-0.2,0-0.3c-0.2-15.9,4.5-27.3,10.2-36.5 c1.2-1.9,2.4-3.7,3.6-5.5c0.1,0,0.2,0,0.2,0C1137.1,515.9,1138.7,517.6,1138.8,519.9z" style="fill: rgb(65, 184, 187);"/>
          <path class="st99" d="M1040.2,603.5c0.1,2.3,1.8,4,4.1,3.9c0,0,12.3-0.8,44.5-0.3c17.8,0.3,29.5,0.8,36.4,1.2 c5.6,0.3,8,0.6,8,0.6c0.1,0,0.2,0,0.3,0c-1.9-2.7-3.6-6-5.1-9.8c-20.1-3.7-60.8-10.2-87.8-6.7 C1040.3,596.2,1040.1,599.4,1040.2,603.5z" style="fill: rgb(65, 184, 187);"/>
        </g>
      </g>
      <g>
        <path class="st98" d="M1087.6,550.4c1.7-0.9,3.4-1.8,5.1-2.7c-0.5,5.5-1,12.4-1.2,21.8c-0.3,18.2,0.1,31.8,0.4,38.3 c0.1,2.8,0.2,4.4,0.2,4.4c0,1.2-0.5,2.2-1.3,2.9c-0.7,0.6-1.5,0.9-2.5,0.9l0,0c-0.1,0-0.2,0-0.3,0c0,0-2.5-0.3-8-0.6 c-6.9-0.4-18.6-0.9-36.4-1.2c-32.1-0.5-44.5,0.3-44.5,0.3c-2.3,0.2-4-1.6-4.1-3.9c-0.1-4.1,0.1-7.2,0.4-11.1 c0.5-6.3,1.4-14.5,1.7-31.5c0.3-15.5-0.2-23.7-0.5-29.8c-0.2-4.7-0.4-8.2-0.2-12.8c0.1-2.3,1.9-4,4.2-3.8c0,0,17.4,1.4,44.4,1.9 c16.3,0.3,28.6,0.1,36.1-0.1c4.4-0.1,7.1-0.2,8-0.3C1089.8,530.9,1088.5,537.3,1087.6,550.4z" style="opacity: 0.5; fill: rgb(198, 198, 198);"/>
        <g>
          <g>
            <path class="st84" d="M990.6,605.3c0.1,2.3,1.8,4,4.1,3.9c0,0,12.3-0.8,44.5-0.3c17.8,0.3,29.5,0.8,36.4,1.2 c5.6,0.3,8,0.6,8,0.6c0.1,0,0.2,0,0.3,0l0,0c2.1,0,3.8-1.6,3.8-3.7c0,0-0.1-1.5-0.2-4.4c-0.3-6.5-0.7-20.1-0.4-38.3 c0.4-24.2,3-31.6,2.1-42.6c-0.2-2.3-1.8-4-4.1-3.9c0,0-0.1,0-0.2,0c-2,0.1-18.1,0.8-44.3,0.3c-27-0.5-44.4-1.9-44.4-1.9 c-2.3-0.2-4,1.5-4.2,3.8c-0.3,4.6-0.1,8.1,0.2,12.8c0.3,6.1,0.8,14.3,0.5,29.8c-0.3,17-1.2,25.2-1.7,31.5 C990.7,598.1,990.5,601.2,990.6,605.3z" style="fill: rgb(114, 145, 150);"/>
          </g>
          <path class="st85" d="M1089.2,521.7c0,0.4,0.1,0.9,0.1,1.3c0.5,7.9-0.8,14.3-1.7,27.3c-0.3,4-0.5,8.5-0.6,13.9 c-0.3,18.2,0.1,31.8,0.4,38.3c0.1,2.8,0.2,4.4,0.2,4.4c0,2.1-1.7,3.8-3.8,3.7l0,0c-1.9-2.7-3.6-6-5.1-9.8 c-1.6-4-3-8.4-4.2-13.2c-1.3-5.5-2.3-11.4-2.9-17.5c-0.3-3.4-0.5-6.8-0.6-10.2c0-0.1,0-0.2,0-0.3c-0.2-15.9,4.5-27.3,10.2-36.5 c1.2-1.9,2.4-3.7,3.6-5.5c0.1,0,0.2,0,0.2,0C1087.4,517.7,1089,519.5,1089.2,521.7z" style="opacity: 0.5; fill: rgb(114, 145, 150);"/>
          <path class="st100" d="M990.6,605.3c0.1,2.3,1.8,4,4.1,3.9c0,0,12.3-0.8,44.5-0.3c17.8,0.3,29.5,0.8,36.4,1.2 c5.6,0.3,8,0.6,8,0.6c0.1,0,0.2,0,0.3,0c-1.9-2.7-3.6-6-5.1-9.8c-20.1-3.7-60.8-10.2-87.8-6.7 C990.7,598.1,990.5,601.2,990.6,605.3z" style="opacity: 0.25; fill: rgb(114, 145, 150);"/>
        </g>
      </g>
      <g>
        <path class="st98" d="M689.7,540.7c1.6-1,3.3-2,4.9-2.9c-0.2,5.5-0.4,12.4-0.1,21.8c0.6,18.2,1.7,31.7,2.3,38.2 c0.3,2.8,0.4,4.3,0.4,4.3c0,1.2-0.4,2.2-1.2,2.9c-0.6,0.6-1.5,1-2.5,1l0,0c-0.1,0-0.2,0-0.3,0c0,0-2.5-0.1-8-0.2 c-6.9-0.1-18.6,0-36.4,0.6c-32.1,1.1-44.4,2.5-44.4,2.5c-2.2,0.3-4-1.4-4.2-3.7c-0.3-4.1-0.3-7.2-0.1-11.2 c0.2-6.3,0.7-14.5,0.1-31.5c-0.5-15.5-1.4-23.7-2-29.8c-0.5-4.7-0.8-8.1-0.8-12.7c0-2.3,1.7-4.1,4-4c0,0,17.4,0.6,44.5-0.3 c16.3-0.5,28.6-1.3,36.1-1.9c4.4-0.3,7.1-0.6,8-0.6C690.9,521.2,689.8,527.7,689.7,540.7z" style="opacity: 0.5; fill: rgb(198, 198, 198);"/>
        <g>
          <g>
            <path class="st99" d="M595.5,600.4c0.2,2.3,2,3.9,4.2,3.6c0,0,12.3-1.4,44.4-2.5c17.8-0.6,29.5-0.6,36.4-0.6 c5.6,0,8.1,0.2,8.1,0.2c0.1,0,0.2,0,0.3,0l0,0c2.1-0.1,3.7-1.8,3.6-3.9c0,0-0.2-1.5-0.4-4.4c-0.6-6.5-1.8-20.1-2.3-38.2 c-0.8-24.2,1.5-31.7,0-42.6c-0.3-2.3-2-4-4.3-3.7c0,0-0.1,0-0.2,0c-2,0.2-18,1.7-44.2,2.5c-27,0.9-44.5,0.3-44.5,0.3 c-2.3-0.1-4,1.7-4,4c0,4.6,0.3,8.1,0.8,12.7c0.6,6.1,1.5,14.3,2,29.8c0.5,17,0.1,25.2-0.1,31.5 C595.2,593.2,595.1,596.4,595.5,600.4z" style="fill: rgb(65, 184, 187);"/>
          </g>
          <path class="st99" d="M689.8,512.1c0.1,0.4,0.1,0.9,0.2,1.3c0.9,7.9-0.1,14.3-0.3,27.4c-0.1,4,0,8.5,0.1,13.9 c0.6,18.2,1.7,31.7,2.3,38.2c0.3,2.8,0.4,4.3,0.4,4.3c0.1,2.1-1.5,3.9-3.6,3.9l0,0c-2-2.6-3.9-5.8-5.6-9.5 c-1.8-3.9-3.4-8.3-4.8-13c-1.6-5.4-2.9-11.3-3.8-17.3c-0.5-3.3-0.8-6.7-1.1-10.1c0-0.1,0-0.2,0-0.3c-1-15.9,3.1-27.5,8.4-36.9 c1.1-2,2.2-3.8,3.4-5.7c0.1,0,0.2,0,0.2,0C687.8,508.1,689.5,509.8,689.8,512.1z" style="fill: rgb(65, 184, 187);"/>
          <path class="st99" d="M595.5,600.4c0.2,2.3,2,3.9,4.2,3.6c0,0,12.3-1.4,44.4-2.5c17.8-0.6,29.5-0.6,36.4-0.6 c5.6,0,8.1,0.2,8.1,0.2c0.1,0,0.2,0,0.3,0c-2-2.6-3.9-5.8-5.6-9.5c-20.3-2.7-61.3-7.1-88-2.4 C595.2,593.2,595.1,596.4,595.5,600.4z" style="fill: rgb(65, 184, 187);"/>
        </g>
      </g>
    </g>
  </g>
  <g transform="matrix(0.809633, 0, 0, 0.809633, -348.312531, -1500.705933)" style="">
    <g>
      <path class="st101" d="M909.5,439.8c-7.1,1.8-9.1,4.2-15.4,7l-7.1-2.7l0.2-7.2c4.7-3.5,6-4.3,10.3-8.4c6-5,8.4-12.8,11-9.3 c1.6,2.1-1.1,5-3,7.9C904.1,429.3,912.9,437.7,909.5,439.8z" style="fill: rgb(186, 134, 95);"/>
      <path class="st0" d="M773.7,431c61.5,77.4,74.5,44.5,113.3,6l7.1,9.9c-40.6,49-66.5,89.6-140.8,0.8 C740.1,433.4,763.6,418,773.7,431z" style="fill: rgb(255, 255, 255);"/>
      <g>
        <polygon class="st102" points="758.2,355.9 783.8,389.8 767.6,388.6 772.8,432.7 698.6,429.8 717.8,338.3 756,339.4 &#9;&#9;&#9;&#9;" style="fill: rgb(233, 163, 106);"/>
        <path class="st12" d="M747.5,377.6c0.4,0,0.8,0,1.2-0.1c3.9-0.6,7.7-4.6,7.1-10.2l-1.8,0.2c0.4,4.6-2.5,7.8-5.6,8.3 c-2.7,0.4-6.1-1.3-7.3-7.2l-1.8,0.4C740.7,375.2,744.4,377.5,747.5,377.6z" style="fill: rgb(26, 50, 66);"/>
        <path class="st12" d="M759.1,418.9l0.1-1.8c-8.3-0.2-19-5.2-23.1-14.2l-1.6,0.8C738.8,413.3,750.2,418.7,759.1,418.9z" style="fill: rgb(26, 50, 66);"/>
        <g>
          <path class="st103" d="M720.9,366c-3.8-0.1-7,2.9-7.1,6.7c-0.1,2,0.7,3.8,2,5.1l-9.8,16.4l8.8-58.9l57.8,1.7L758.1,356 l-28.8-3.1l-7.2,13.2C721.7,366,721.3,366,720.9,366z" style="fill: rgb(241, 212, 130);"/>
        </g>
      </g>
      <path class="st0" d="M772.3,428.7c23.2,33,33.8,122.2,16.1,179.1l-66.2-0.4c-8.5-81-11.7-116.7-23.6-178.3L772.3,428.7z" style="fill: rgb(255, 255, 255);"/>
      <polygon class="st102" points="770.4,428.3 749.1,428.3 766.2,449.2 &#9;&#9;&#9;" style="fill: rgb(233, 163, 106);"/>
      <path class="st104" d="M915.3,449.7v-0.5c0-2.8-10.8-1.4-10.8-4.5v-15.4c0-2.6,2.8-5.4,6.2-7.3c6.6-3.6,10.9-6.9,9.8-17h-35.7 c-1,10.2,3.3,13.4,9.8,17c3.4,1.9,6.2,4.7,6.2,7.3v15.4c0,3.2-10.8,1.7-10.8,4.5v0.5H915.3z" style="fill: rgb(227, 227, 227);"/>
      <path class="st101" d="M913,442.1c-0.5,3.3-3.3,3.8-6.1,4c-2.6,0.2-4.3-4-5.4-7.5c-1-3.6-1.7-12.4,8.4-12.4 C913.9,425.9,913.7,439.2,913,442.1z" style="fill: rgb(186, 134, 95);"/>
      <path class="st0" d="M698.6,429.8c17.8,9.1,20.4,23.2,20.4,35.7c-22.7,24.3-47.9,77.1-31.3,149.6l-12.9,0.1 C658.3,569.3,668.3,471,698.6,429.8z" style="fill: rgb(255, 255, 255);"/>
    </g>
    <path class="st105" d="M740.1,575.6L721,589.2c0,23-0.2,37.6,21.2,37.6h92.7c7.3,0,9.9,6.8,7.8,14.1l-27.2,148.8l28.7,8.4 l-11.5-18.8l43.3-135.8c8.4-25.6-2.6-45.4-24-49.6l-48.1-4.7l-29.9-21.4L740.1,575.6z" style="fill: rgb(13, 60, 87);"/>
    <path class="st105" d="M764.9,589.2l42.7,4.7c21.4,4.2,32.4,24,24,49.6l-57.1,132.3l11.5,18.8l-28.7-8.4l40.9-145.3 c2.1-7.3-0.5-14.1-7.8-14.1h-32.5L764.9,589.2z" style="fill: rgb(13, 60, 87);"/>
  </g>
  <g transform="matrix(0.809633, 0, 0, 0.809633, -348.312531, -1500.705933)" style="">
    <g>
      <path class="st101" d="M925.7,438.9c7.1,1.8,9.1,4.2,15.4,7l7.1-2.7L948,436c-4.7-3.5-6-4.3-10.3-8.4c-6-5-8.4-12.8-11-9.3 c-1.6,2.1,1.1,5,3,7.9C931,428.4,922.2,436.8,925.7,438.9z" style="fill: rgb(186, 134, 95);"/>
      <path class="st99" d="M1061.4,430c-61.5,77.4-74.5,44.5-113.3,6l-7.1,9.9c40.6,49,66.5,89.6,140.8,0.8 C1095,432.5,1071.5,417,1061.4,430z" style="fill: rgb(65, 184, 187);"/>
      <g>
        <polygon class="st101" points="1077,355 1051.3,388.9 1067.6,387.7 1062.4,431.8 1136.6,428.8 1117.4,337.4 1079.1,338.5 &#9;&#9;&#9;&#9;&#10;&#9;&#9;&#9;&#9;&#9;" style="fill: rgb(186, 134, 95);"/>
        <path class="st12" d="M1087.6,376.6c-0.4,0-0.8,0-1.2-0.1c-3.9-0.6-7.7-4.6-7.1-10.2l1.8,0.2c-0.4,4.6,2.5,7.8,5.6,8.3 c2.7,0.4,6.1-1.3,7.3-7.2l1.8,0.4C1094.4,374.3,1090.8,376.6,1087.6,376.6z" style="fill: rgb(26, 50, 66);"/>
        <path class="st12" d="M1076.1,418l-0.1-1.8c8.3-0.2,19-5.2,23.1-14.2l1.6,0.8C1096.3,412.4,1085,417.7,1076.1,418z" style="fill: rgb(26, 50, 66);"/>
        <g>
          <path class="st105" d="M1114.3,365c3.8-0.1,7,2.9,7.1,6.7c0.1,2-0.7,3.8-2,5.1l9.8,16.4l-8.8-58.9l-57.8,1.7l14.5,19.1 l28.8-3.1l7.2,13.2C1113.4,365.1,1113.8,365.1,1114.3,365z" style="fill: rgb(13, 60, 87);"/>
        </g>
      </g>
      <path class="st99" d="M1062.8,427.8c-23.2,33-33.8,122.2-16.1,179.1l66.2-0.4c8.5-81,11.7-116.7,23.6-178.3L1062.8,427.8z" style="fill: rgb(65, 184, 187);"/>
      <polygon class="st0" points="1064.7,429.2 1086.1,429.2 1074.7,442.5 1066.6,561 1052.2,576.7 1043.5,558.2 1068.1,442.4 &#9;&#9;&#9;" style="fill: rgb(255, 255, 255);"/>
      <path class="st101" d="M1147.5,614.1l11-6.5l1.9,6.7c2.7,32-8.4,29.6-17.2,27.9c-4.6-1.3,5.7-18.3-0.6-16.4c-5,2-5.3,9.4-9.6,7 c-2.1-1,4.2-11.6,9.6-14.1C1145.3,617.5,1146,616.4,1147.5,614.1z" style="fill: rgb(186, 134, 95);"/>
      <path class="st0" d="M919.8,448.8v-0.5c0-2.8,10.8-1.4,10.8-4.5v-15.4c0-2.6-2.8-5.4-6.2-7.3c-6.6-3.6-10.9-6.9-9.8-17h35.7 c1,10.2-3.3,13.4-9.8,17c-3.4,1.9-6.2,4.7-6.2,7.3v15.4c0,3.2,10.8,1.7,10.8,4.5v0.5H919.8z" style="fill: rgb(255, 255, 255);"/>
      <path class="st101" d="M922.2,441.1c0.5,3.3,3.3,3.8,6.1,4c2.6,0.2,4.3-4,5.4-7.5c1-3.6,1.7-12.4-8.4-12.4 C921.2,424.9,921.4,438.3,922.2,441.1z" style="fill: rgb(186, 134, 95);"/>
      <path class="st99" d="M1136.6,428.8c-17.8,9.1-20.4,23.2-20.4,35.7c22.7,24.3,47.9,77.1,31.3,149.6l12.9,0.1 C1176.9,568.4,1166.8,470.1,1136.6,428.8z" style="fill: rgb(65, 184, 187);"/>
    </g>
    <path class="st105" d="M1095,574.7l19.1,13.6c0,23,0.2,37.6-21.2,37.6h-92.7c-7.3,0-9.9,6.8-7.8,14.1l27.2,148.8l-28.7,8.4 l11.5-18.8L959,642.6c-8.4-25.6,2.6-45.4,24-49.6l48.1-4.7l29.9-21.4L1095,574.7z" style="fill: rgb(13, 60, 87);"/>
    <path class="st105" d="M1070.2,588.3l-42.7,4.7c-21.4,4.2-32.4,24-24,49.6l57.1,132.3l-11.5,18.8l28.7-8.4L1036.9,640 c-2.1-7.3,0.5-14.1,7.8-14.1h32.5L1070.2,588.3z" style="fill: rgb(13, 60, 87);"/>
  </g>
  <g transform="matrix(0.809633, 0, 0, 0.809633, -348.312531, -1500.705933)" style="">
    <g>
      <path class="st87" d="M897.9,490.4l-0.5-2.1c-3.7-3.3-11-2.1-14-0.3c-7.4,4.5-11.3,1.3-11.3,5c0,1.8,1.7,2.1,3.8,2.1l15.5-0.2 l7.9,1.8L897.9,490.4z" style="fill: rgb(248, 194, 151);"/>
      <g>
        <path class="st106" d="M972.4,458c-16.3,71-45.2,59.5-75,30.2l-6.1,6.8c24.9,21.9,63.2,67,93.5-28.4 C991.1,452.1,976.3,448,972.4,458z" style="fill: rgb(135, 158, 39);"/>
      </g>
    </g>
    <g>
      <path class="st87" d="M1010.8,356.1l-8.2-2.3c-30.5-1.8-53.2,2.4-58.3,24.7l0,0c-0.1,0.3-0.1,0.5-0.2,0.8 c-0.1,0.7-0.3,1.4-0.4,2.1c-1.2,7.5-2,15.8-9,18.8l10.7-0.1c3.8,10.4,12.2,18.7,22,25.4c18.4,12.6,11.9,18.2,9.9,23.4l18.8-1.3 l0.3-4.6l0,0c1.1-17.6,6.1-23.8,15.2-34.2C1022.8,396,1029.9,364.4,1010.8,356.1z" style="fill: rgb(248, 194, 151);"/>
      <polygon class="st87" points="950,625.5 914.7,625.5 951.4,759.6 927.7,759.6 938.3,743.6 888.4,609.1 949.4,603.1 &#9;&#9;&#9;" style="fill: rgb(248, 194, 151);"/>
      <g>
        <polygon class="st107" points="927.7,759.6 951.4,759.6 946.6,742.3 937.7,742.3 938.3,743.6 &#9;&#9;&#9;&#9;" style="fill: rgb(46, 52, 44);"/>
      </g>
      <polygon class="st87" points="936.3,625.5 886.8,625.5 923.5,759.6 899.8,759.6 910.4,743.6 860.5,609.1 935.8,601.2 &#9;&#9;&#9;" style="fill: rgb(248, 194, 151);"/>
      <g>
        <polygon class="st107" points="899.8,759.6 923.5,759.6 918.8,742.3 910,742.3 910.4,743.6 &#9;&#9;&#9;&#9;" style="fill: rgb(46, 52, 44);"/>
      </g>
      <path class="st12" d="M969.4,395.5c1.1,0,2.1-0.2,3-0.6c2.8-1.3,4.5-4.3,4.9-8.4l-1.6-0.1c-0.3,3.5-1.7,6.1-4,7.1 c-2,0.9-4.5,0.6-6.4-0.9c-2.1-1.5-3.2-3.9-2.9-6.5l-1.6-0.2c-0.3,3.2,1,6.2,3.6,8C965.9,394.9,967.7,395.5,969.4,395.5z" style="fill: rgb(26, 50, 66);"/>
      <path class="st12" d="M973.1,421.1c0.9,0,1.8-0.2,2.7-0.5c2.1-0.9,3.5-2.7,3.6-5l-1.6-0.1c-0.1,1.6-1.1,3-2.6,3.6 c-2.1,0.8-4.6,0.3-6.5-1.4l-1.1,1.2C969.2,420.4,971.2,421.1,973.1,421.1z" style="fill: rgb(26, 50, 66);"/>
      <path class="st108" d="M976.4,445.9c-27.2,53.4-15.9,156.3-60.3,156.3l8.9,23.5c76.8,0,66.3,9.5,72.2-177.5L976.4,445.9z" style="fill: rgb(174, 201, 20);"/>
      <polygon class="st0" points="999.4,449.3 997.7,441.7 981.7,446 978.5,440.6 974.3,445.4 976.2,451.6 962.7,516.3 983.7,454.4 &#10;&#9;&#9;&#9;&#9;&#9;&#9;&#9;" style="fill: rgb(255, 255, 255);"/>
      <g>
        <path class="st109" d="M1022.8,423.7c28.5-28.3,22.4-99.7-39.7-88.4c-34.3,6.2-34.4,30.1-45.3,25.7c5.8,20,38.9,20.5,50.3,11.4 c3,2.6,5.1,6.2,6.7,10.4c0.9-0.3,1.9-0.4,2.9-0.3c4.8,0.3,8.5,4.5,8.2,9.3c-0.3,4.3-3.5,7.6-7.6,8.2 c-3.1,29.9,1.5,56.5,32.2,47.8C1021.3,447.8,1003.8,442,1022.8,423.7z" style="fill: rgb(189, 88, 28);"/>
      </g>
    </g>
    <g>
      <path class="st0" d="M919.5,506.9v-0.5c0-2.8,10.8-1.4,10.8-4.5v-15.4c0-2.6-2.8-5.4-6.2-7.3c-6.6-3.6-10.9-6.9-9.8-17H950 c1,10.2-3.3,13.4-9.8,17c-3.4,1.9-6.2,4.7-6.2,7.3v15.4c0,3.2,10.8,1.7,10.8,4.5v0.5H919.5z" style="fill: rgb(255, 255, 255);"/>
      <path class="st87" d="M933.5,490.6c0.9-0.3,0.9-1.7,0.8-2.2c-1.2-2.8-3.5-6.3-1.8-7.8c2.8-2.5,3.5,4.6,7.7,9.9 c2.9,4.3,3.9,5.2,7.2,9.1l-1,6.2l-6.5-0.5c-4.3-1.7-10.6-3.4-12.9-5.2c-1.5-1.2-1.2-3.2-0.9-5s0.7-9.3,4.4-9.1 c0.4,1.8,0.3,2.6,0.2,3.3C930.9,491.4,932.7,490.9,933.5,490.6z" style="fill: rgb(248, 194, 151);"/>
    </g>
    <path class="st108" d="M996.7,454.3c58.2,73.9,8.6,118.5-56.8,51l6.5-7c51.2,50.7,81.6,27.2,43.3-26.7 C979.4,458.3,991,448.8,996.7,454.3z" style="fill: rgb(174, 201, 20);"/>
    <g>
      <path class="st106" d="M989.6,471.6c-4.2-5.4-4.6-10.3-3.3-13.8c56.3,71.2,13.6,98.7-42.6,43.5l2.7-3 C997.6,549,1028,525.5,989.6,471.6z" style="fill: rgb(135, 158, 39);"/>
    </g>
  </g>
  <g transform="matrix(0.809633, 0, 0, 0.809633, -348.312531, -1500.705933)" style="">
    <g>
      <path class="st110" d="M740.4,490.4l0.5-2.1c3.7-3.3,11-2.1,14-0.3c7.4,4.5,11.3,1.3,11.3,5c0,1.8-1.7,2.1-3.8,2.1l-15.5-0.2 l-7.9,1.8L740.4,490.4z" style="fill: rgb(250, 211, 140);"/>
      <g>
        <path class="st111" d="M665.9,458c16.3,71,45.2,59.5,75,30.2l6.1,6.8c-24.9,21.9-63.2,67-93.5-28.4 C647.1,452.1,662,448,665.9,458z" style="fill: rgb(198, 82, 6);"/>
      </g>
    </g>
    <g>
      <path class="st110" d="M627.5,356.1l8.2-2.3c30.5-1.8,53.2,2.4,58.3,24.7l0,0c0.1,0.3,0.1,0.5,0.2,0.8c0.1,0.7,0.3,1.4,0.4,2.1 c1.2,7.5,2,15.8,9,18.8l-10.7-0.1c-3.8,10.4-12.2,18.7-22,25.4c-18.4,12.6-11.9,18.2-9.9,23.4l-18.8-1.3l-0.3-4.6l0,0 c-1.1-17.6-6.1-23.8-15.2-34.2C615.5,396,608.4,364.4,627.5,356.1z" style="fill: rgb(250, 211, 140);"/>
      <polygon class="st110" points="688.3,625.5 723.6,625.5 686.9,759.6 710.6,759.6 700,743.6 749.9,609.1 688.9,603.1 &#9;&#9;&#9;" style="fill: rgb(250, 211, 140);"/>
      <g>
        <polygon class="st107" points="710.6,759.6 686.9,759.6 691.6,742.3 700.6,742.3 700,743.6 &#9;&#9;&#9;&#9;" style="fill: rgb(46, 52, 44);"/>
      </g>
      <polygon class="st110" points="701.9,625.5 751.5,625.5 714.8,759.6 738.5,759.6 727.8,743.6 777.7,609.1 702.5,601.2 &#9;&#9;&#9;" style="fill: rgb(250, 211, 140);"/>
      <g>
        <polygon class="st107" points="738.5,759.6 714.8,759.6 719.5,742.3 728.3,742.3 727.8,743.6 &#9;&#9;&#9;&#9;" style="fill: rgb(46, 52, 44);"/>
      </g>
      <path class="st12" d="M668.9,395.5c-1.1,0-2.1-0.2-3-0.6c-2.8-1.3-4.5-4.3-4.9-8.4l1.6-0.1c0.3,3.5,1.7,6.1,4,7.1 c2,0.9,4.5,0.6,6.4-0.9c2.1-1.5,3.2-3.9,2.9-6.5l1.6-0.2c0.3,3.2-1,6.2-3.6,8C672.4,394.9,670.6,395.5,668.9,395.5z" style="fill: rgb(26, 50, 66);"/>
      <path class="st12" d="M665.1,421.1c-0.9,0-1.8-0.2-2.7-0.5c-2.1-0.9-3.5-2.7-3.6-5l1.6-0.1c0.1,1.6,1.1,3,2.6,3.6 c2.1,0.8,4.6,0.3,6.5-1.4l1.1,1.2C669.1,420.4,667.1,421.1,665.1,421.1z" style="fill: rgb(26, 50, 66);"/>
      <path class="st112" d="M661.9,445.9c27.2,53.4,15.9,156.3,60.3,156.3l-8.9,23.5c-76.8,0-66.3,9.5-72.2-177.5L661.9,445.9z" style="fill: rgb(238, 82, 6);"/>
      <polygon class="st0" points="638.9,449.3 640.6,441.7 656.6,446 659.8,440.6 664,445.4 662.1,451.6 675.5,516.3 654.6,454.4 &#9;&#9;&#9;&#10;&#9;&#9;&#9;&#9;" style="fill: rgb(255, 255, 255);"/>
      <g>
        <path class="st105" d="M615.5,423.7c-28.5-28.3-22.4-99.7,39.7-88.4c34.3,6.2,34.4,30.1,45.3,25.7c-5.8,20-38.9,20.5-50.3,11.4 c-3,2.6-5.1,6.2-6.7,10.4c-0.9-0.3-1.9-0.4-2.9-0.3c-4.8,0.3-8.5,4.5-8.2,9.3c0.3,4.3,3.5,7.6,7.6,8.2 c3.1,29.9-1.5,56.5-32.2,47.8C617,447.8,634.5,442,615.5,423.7z" style="fill: rgb(13, 60, 87);"/>
      </g>
    </g>
    <g>
      <path class="st104" d="M718.7,506.9v-0.5c0-2.8-10.8-1.4-10.8-4.5v-15.4c0-2.6,2.8-5.4,6.2-7.3c6.6-3.6,10.9-6.9,9.8-17h-35.7 c-1,10.2,3.3,13.4,9.8,17c3.4,1.9,6.2,4.7,6.2,7.3v15.4c0,3.2-10.8,1.7-10.8,4.5v0.5H718.7z" style="fill: rgb(227, 227, 227);"/>
      <path class="st110" d="M704.7,490.6c-0.9-0.3-0.9-1.7-0.8-2.2c1.2-2.8,3.5-6.3,1.8-7.8c-2.8-2.5-3.5,4.6-7.7,9.9 c-2.9,4.3-3.9,5.2-7.2,9.1l1,6.2l6.5-0.5c4.3-1.7,10.6-3.4,12.9-5.2c1.5-1.2,1.2-3.2,0.9-5s-0.7-9.3-4.4-9.1 c-0.4,1.8-0.3,2.6-0.2,3.3C707.4,491.4,705.5,490.9,704.7,490.6z" style="fill: rgb(250, 211, 140);"/>
    </g>
    <path class="st112" d="M641.6,454.3c-58.2,73.9-8.6,118.5,56.8,51l-6.5-7c-51.2,50.7-81.6,27.2-43.3-26.7 C658.9,458.3,647.2,448.8,641.6,454.3z" style="fill: rgb(238, 82, 6);"/>
    <g>
      <path class="st111" d="M648.6,471.6c4.2-5.4,4.6-10.3,3.3-13.8c-56.3,71.2-13.6,98.7,42.6,43.5l-2.7-3 C640.7,549,610.3,525.5,648.6,471.6z" style="fill: rgb(198, 82, 6);"/>
    </g>
  </g>
  <g transform="matrix(0.809633, 0, 0, 0.809633, -348.312531, -1500.705933)" style="">
    <rect x="873.2" y="664.1" transform="matrix(0.5447 0.8387 -0.8387 0.5447 958.1943 -430.9767)" class="st99" width="5.6" height="5.6" style="fill: rgb(65, 184, 187);"/>
    <g>
      <path class="st59" d="M857.9,934c6.6,0,79.8-48.3,83.8-51.3c4-3,0.2-98.4,0.2-98.4l-78.7,17.5l-22.8,32.2L857.9,934z" style="fill: rgb(220, 166, 101);"/>
      <path class="st60" d="M774.5,781c0,0-2.2,99.9-0.2,102.9c2,3,80.6,50.6,83.6,50.1s0.7-99.9,0.7-99.9l-25.1-53L774.5,781z" style="fill: rgb(183, 127, 67);"/>
      <polygon class="st59" points="774.5,781 806.2,825 858.6,834.1 925.7,814.1 941.9,784.4 922.8,746.5 858.8,734.3 809.9,746.3 &#9;&#9;&#9;&#10;&#9;&#9;&#9;&#9;" style="fill: rgb(220, 166, 101);"/>
      <path class="st61" d="M774.5,781c0,0-25.8,24.2-27.8,27.7c-2,3.5,74.5,56.1,80.1,57.2s31.8-31.7,31.8-31.7S782,785.1,774.5,781z" style="fill: rgb(244, 192, 128);"/>
      <path class="st61" d="M774.5,781l84.3-46.7c0,0-28.7-17.2-34.3-15.7c-5.6,1.5-74.8,44.7-77.8,47.3 C743.7,768.4,774.5,781,774.5,781z" style="fill: rgb(244, 192, 128);"/>
      <polygon class="st60" points="925.7,814.1 941.9,784.4 922.8,746.5 858.8,734.3 858.6,834.1 &#9;&#9;&#9;" style="fill: rgb(183, 127, 67);"/>
      <path class="st61" d="M858.6,834.1c0,0,30.2,31.9,34.7,31.9c4.5,0,73.7-52.3,74.8-54.9c1-2.5-26.2-26.8-26.2-26.8L858.6,834.1z" style="fill: rgb(244, 192, 128);"/>
      <path class="st61" d="M941.9,784.4c0,0-83.1-49.1-83.1-50.1c0-1,27.8-15.1,32.3-15.6c4.5-0.5,78.1,42.5,80.1,45 C973.2,766.3,941.9,784.4,941.9,784.4z" style="fill: rgb(244, 192, 128);"/>
      <path class="st62" d="M871.5,804c-2,0.7-3.4,2.1-5,3.5c-1.5,1.3-3.2,2.5-5,3.4c-2.2,1.1-0.7,4.7,1.7,4c4-1.3,9.7-3.7,10.9-8.2 C874.6,805.2,873.1,803.4,871.5,804z" style="fill: rgb(169, 118, 61);"/>
      <path class="st62" d="M886.5,801.6c-7.3,4.1-14,9.2-20.6,14.4c-1.9,1.5,0.6,4.6,2.5,3.3c7-4.6,14.6-8.4,20.7-14.4 C890.8,803.2,888.6,800.4,886.5,801.6z" style="fill: rgb(169, 118, 61);"/>
      <path class="st62" d="M792.5,868c-3.3-1.4-7.3,0.5-10.3,2.1c-2,1-0.6,4.6,1.6,3.7c1.3-0.5,2.6-1,4-1.3c1.6-0.4,3.2-0.3,4.7-0.9 C794.3,871,794.2,868.7,792.5,868z" style="fill: rgb(169, 118, 61);"/>
      <path class="st62" d="M802,871.9c-6.7,0.7-13.1,3.5-19.2,6.1c-2.2,1-0.6,4.7,1.6,3.9c6.1-2.3,12.7-3.5,18.6-6.4 C804.8,874.8,804,871.7,802,871.9z" style="fill: rgb(169, 118, 61);"/>
      <path class="st62" d="M800.6,879.2c-3.6-1-7.3,1.4-10.4,2.8c-2.3,1-0.7,4.8,1.7,4c1.5-0.5,3.1-1.1,4.6-1.5 c1.6-0.5,3.1-0.7,4.6-1.4C802.8,882.3,802.3,879.7,800.6,879.2z" style="fill: rgb(169, 118, 61);"/>
      <path class="st62" d="M804.3,887.3c-1.2,0.3-2.3,0.7-3.4,1.1c-2.1,0.7-1.2,4,0.9,3.3c1.5-0.5,2.7-1,3.9-2 C806.9,888.8,805.6,886.9,804.3,887.3z" style="fill: rgb(169, 118, 61);"/>
      <path class="st60" d="M875,900.4c-3.6,0.9-6.3,3.6-8.9,6.1c-1.5,1.4,0.8,3.7,2.3,2.3c2.4-2.3,4.9-4.2,7.6-6.1 C877,901.9,876.4,900.1,875,900.4z" style="fill: rgb(183, 127, 67);"/>
      <path class="st60" d="M888.3,896.4c-4.4,3.6-8.7,7.2-12.8,11.1c-2.6,2.4-6.6,5-7.8,8.4c-0.5,1.5,1.6,2.7,2.6,1.5 c5.9-6.9,14-12,20.2-18.8C892,897.2,889.9,895.1,888.3,896.4z" style="fill: rgb(183, 127, 67);"/>
      <path class="st60" d="M890.2,903.4c-1.9,1.1-3.6,2.4-5.1,4.1c-1.1,1.2,0.7,3.1,1.8,1.8c1.4-1.5,3-2.9,4.6-4.2 C892.5,904.3,891.3,902.8,890.2,903.4z" style="fill: rgb(183, 127, 67);"/>
      <path class="st59" d="M765.2,801.2c-2.1-0.2-4.4-0.2-6.5,0.5c-1.5,0.5-1.4,2.4,0,3c2.3,0.9,4.6-0.2,6.8-0.8 C767.1,803.4,766.7,801.3,765.2,801.2z" style="fill: rgb(220, 166, 101);"/>
      <path class="st59" d="M770.9,806.7c-4.1,0.7-8.1,2-12.2,3.1c-1.9,0.5-1.1,3.5,0.8,3c4-1.1,8.1-2.2,12-3.6 C773.2,808.6,772.5,806.4,770.9,806.7z" style="fill: rgb(220, 166, 101);"/>
      <path class="st59" d="M901,843.3c-2.2,1.2-3.8,3.2-5.7,4.9c-1.3,1.2,0.6,2.9,1.9,1.9c1.9-1.5,3.7-3,5.4-4.7 C903.7,844.3,902.3,842.6,901,843.3z" style="fill: rgb(220, 166, 101);"/>
      <path class="st59" d="M913.8,838.5c-1.7,1.4-3.4,2.9-5.1,4.4c-1.8,1.6-3.2,3.8-4.6,5.7c-1.7,2.3,2.2,5.4,4,3.1 c1.4-1.7,2.9-3.4,4.3-5.1c1.5-1.8,2.8-3.9,4.3-5.8C918.1,838.9,915.3,837.2,913.8,838.5z" style="fill: rgb(220, 166, 101);"/>
      <path class="st63" d="M916,737.6c-6.2-5.6-15-7.2-22.5-10.6c-2.4-1.1-4.6,2.4-2.1,3.6c7.3,3.6,14.9,6.5,22.3,10 C915.5,741.4,917.6,739.1,916,737.6z" style="fill: rgb(245, 218, 175);"/>
      <path class="st63" d="M928.8,743.7c-1.5-0.9-3-1.3-4.8-1.3c-2.6-0.1-2.5,4.1,0,3.9c1.2-0.1,2.4,0,3.6,0.2 C929.3,746.8,930.4,744.6,928.8,743.7z" style="fill: rgb(245, 218, 175);"/>
      <path class="st63" d="M811.6,731.6c-3.9-0.6-6.3,2.3-8.9,4.8c-3.6,3.6-7.6,6.7-11.2,10.4c-1.7,1.8,0.9,4.5,2.7,2.7 c5.4-5.2,11.5-10.3,17.7-14.6C813.1,734.1,813.3,731.8,811.6,731.6z" style="fill: rgb(245, 218, 175);"/>
      <path class="st63" d="M822.1,722.2c-1.2,1.3-2.5,2.4-3.9,3.4c-0.9,0.6-1.3,1.7-0.7,2.7c0.5,0.9,1.8,1.3,2.7,0.7 c2.1-1.4,3.8-2.8,4.6-5.3C825.2,722.2,823.1,721,822.1,722.2z" style="fill: rgb(245, 218, 175);"/>
    </g>
    <line class="st114" x1="886.5" y1="801.6" x2="1009.8" y2="548.1" style="fill: none; stroke: rgb(65, 184, 187); stroke-dasharray: 15px, 20px; stroke-linecap: round; stroke-linejoin: round; stroke-miterlimit: 10; stroke-width: 5px;"/>
    <line class="st115" x1="859.4" y1="814.7" x2="856.8" y2="501.6" style="fill: none; stroke: rgb(174, 201, 20); stroke-dasharray: 15px, 20px; stroke-linecap: round; stroke-linejoin: round; stroke-miterlimit: 10; stroke-width: 5px;"/>
    <line class="st115" x1="849.2" y1="814.3" x2="585.3" y2="561.6" style="fill: none; stroke: rgb(174, 201, 20); stroke-dasharray: 15px, 20px; stroke-linecap: round; stroke-linejoin: round; stroke-miterlimit: 10; stroke-width: 5px;"/>
    <line class="st116" x1="875.5" y1="775.2" x2="926.5" y2="542" style="fill: none; stroke: rgb(255, 255, 255); stroke-dasharray: 15px, 20px; stroke-linecap: round; stroke-linejoin: round; stroke-miterlimit: 10; stroke-width: 5px;"/>
    <line class="st116" x1="836.9" y1="716.8" x2="816" y2="616.3" style="fill: none; stroke: rgb(255, 255, 255); stroke-dasharray: 15px, 20px; stroke-linecap: round; stroke-linejoin: round; stroke-miterlimit: 10; stroke-width: 5px;"/>
    <line class="st114" x1="833.5" y1="781.1" x2="718.3" y2="508.1" style="fill: none; stroke: rgb(65, 184, 187); stroke-dasharray: 15px, 20px; stroke-linecap: round; stroke-linejoin: round; stroke-miterlimit: 10; stroke-width: 5px;"/>
    <rect x="794.7" y="595.5" transform="matrix(0.9782 0.2079 -0.2079 0.9782 141.6986 -152.63)" class="st5" width="4.6" height="4.6" style="fill: rgb(175, 202, 11);"/>
    <rect x="963.1" y="712.6" transform="matrix(0.5447 0.8387 -0.8387 0.5447 1039.8269 -484.3156)" class="st99" width="5.6" height="5.6" style="fill: rgb(65, 184, 187);"/>
    <rect x="629.3" y="627" transform="matrix(0.5447 0.8387 -0.8387 0.5447 816.0651 -243.3475)" class="st99" width="5.6" height="5.6" style="fill: rgb(65, 184, 187);"/>
    <rect x="1007" y="644.3" transform="matrix(0.5447 0.8387 -0.8387 0.5447 1002.5177 -552.2031)" class="st0" width="5.6" height="5.6" style="fill: rgb(255, 255, 255);"/>
    <rect x="1054.8" y="649" transform="matrix(0.5447 0.8387 -0.8387 0.5447 1028.2206 -590.1792)" class="st99" width="5.6" height="5.6" style="fill: rgb(65, 184, 187);"/>
    <rect x="887.9" y="555.1" transform="matrix(0.5447 0.8387 -0.8387 0.5447 873.5063 -492.9223)" class="st5" width="5.6" height="5.6" style="fill: rgb(175, 202, 11);"/>
    <rect x="767.1" y="562.6" transform="matrix(0.5447 0.8387 -0.8387 0.5447 824.795 -388.2749)" class="st99" width="5.6" height="5.6" style="fill: rgb(65, 184, 187);"/>
    <rect x="702.3" y="548.7" transform="matrix(0.5447 0.8387 -0.8387 0.5447 783.6201 -340.1626)" class="st0" width="5.6" height="5.6" style="fill: rgb(255, 255, 255);"/>
    <rect x="934.1" y="648.2" transform="matrix(0.5447 0.8387 -0.8387 0.5447 972.625 -489.3544)" class="st108" width="5.6" height="5.6" style="fill: rgb(174, 201, 20);"/>
    <rect x="625.8" y="556.9" transform="matrix(0.5447 0.8387 -0.8387 0.5447 755.6456 -272.3614)" class="st0" width="5.6" height="5.6" style="fill: rgb(255, 255, 255);"/>
    <rect x="934.4" y="742.2" transform="matrix(0.5447 0.8387 -0.8387 0.5447 1051.557 -446.8217)" class="st0" width="5.6" height="5.6" style="fill: rgb(255, 255, 255);"/>
    <line class="st116" x1="816.7" y1="797" x2="694.8" y2="720.6" style="fill: none; stroke: rgb(255, 255, 255); stroke-dasharray: 15px, 20px; stroke-linecap: round; stroke-linejoin: round; stroke-miterlimit: 10; stroke-width: 5px;"/>
    <rect x="1191.5" y="474.8" transform="matrix(0.5447 0.8387 -0.8387 0.5447 944.3787 -784.1044)" class="st5" width="5.6" height="5.6" style="fill: rgb(175, 202, 11);"/>
    <rect x="1096.1" y="708.2" transform="matrix(0.5447 0.8387 -0.8387 0.5447 1096.7036 -597.8911)" class="st5" width="5.6" height="5.6" style="fill: rgb(175, 202, 11);"/>
    <rect x="1058.6" y="241.7" transform="matrix(0.5447 0.8387 -0.8387 0.5447 688.4147 -778.8494)" class="st5" width="5.6" height="5.6" style="fill: rgb(175, 202, 11);"/>
    <rect x="734.9" y="222.2" transform="matrix(0.5447 0.8387 -0.8387 0.5447 524.5833 -516.2353)" class="st5" width="5.6" height="5.6" style="fill: rgb(175, 202, 11);"/>
    <rect x="605.8" y="695.9" transform="matrix(0.5447 0.8387 -0.8387 0.5447 863.1323 -192.2775)" class="st5" width="5.6" height="5.6" style="fill: rgb(175, 202, 11);"/>
    <line class="st116" x1="906.3" y1="792.6" x2="1032.3" y2="690.6" style="fill: none; stroke: rgb(255, 255, 255); stroke-dasharray: 15px, 20px; stroke-linecap: round; stroke-linejoin: round; stroke-miterlimit: 10; stroke-width: 5px;"/>
    <rect x="814.9" y="539.2" transform="matrix(0.5447 0.8387 -0.8387 0.5447 826.8778 -438.9978)" class="st0" width="5.6" height="5.6" style="fill: rgb(255, 255, 255);"/>
    <rect x="846" y="270.3" transform="matrix(0.5447 0.8387 -0.8387 0.5447 615.586 -587.4922)" class="st0" width="5.6" height="5.6" style="fill: rgb(255, 255, 255);"/>
    <rect x="1050.8" y="304" transform="matrix(0.5447 0.8387 -0.8387 0.5447 737.0621 -743.9175)" class="st0" width="5.6" height="5.6" style="fill: rgb(255, 255, 255);"/>
    <rect x="667.9" y="686.2" transform="matrix(0.5447 0.8387 -0.8387 0.5447 883.2253 -248.7798)" class="st99" width="5.6" height="5.6" style="fill: rgb(65, 184, 187);"/>
    <rect x="703.9" y="781.2" transform="matrix(0.5447 0.8387 -0.8387 0.5447 979.2902 -235.714)" class="st99" width="5.6" height="5.6" style="fill: rgb(65, 184, 187);"/>
  </g>
  <rect x="321.016" y="577.829" transform="matrix(0.707107, 0.707107, -0.707107, 0.707107, 157.753876, -1559.855957)" class="st99" width="6.882" height="6.882" style="fill: rgb(65, 184, 187);"/>
  <rect x="387.486" y="467.073" transform="matrix(0.707107, 0.707107, -0.707107, 0.707107, 98.875931, -1639.311523)" class="st108" width="6.882" height="6.882" style="fill: rgb(174, 201, 20);"/>
  <rect x="580.987" y="221.351" transform="matrix(0.707107, 0.707107, -0.707107, 0.707107, -18.178356, -1848.121948)" class="st99" width="6.882" height="6.882" style="fill: rgb(65, 184, 187);"/>
  <rect x="672.393" y="194.067" transform="matrix(0.707107, 0.707107, -0.707107, 0.707107, -10.692738, -1920.721802)" class="st108" width="6.882" height="6.882" style="fill: rgb(174, 201, 20);"/>
  <rect x="301.585" y="501.725" transform="matrix(0.707107, 0.707107, -0.707107, 0.707107, 98.247948, -1568.406494)" class="st108" width="6.882" height="6.882" style="fill: rgb(174, 201, 20);"/>
  <rect x="969.526" y="502.291" transform="matrix(0.707107, 0.707107, -0.707107, 0.707107, 294.270569, -2040.598389)" class="st99" width="6.882" height="6.882" style="fill: rgb(65, 184, 187);"/>
  <rect x="1039.963" y="331.056" transform="matrix(0.707107, 0.707107, -0.707107, 0.707107, 193.822647, -2140.554687)" class="st99" width="6.882" height="6.882" style="fill: rgb(65, 184, 187);"/>
  <rect x="937.95" y="190.829" transform="matrix(0.707107, 0.707107, -0.707107, 0.707107, 64.797974, -2109.449707)" class="st99" width="6.882" height="6.882" style="fill: rgb(65, 184, 187);"/>
  <rect x="419.467" y="220.542" transform="matrix(0.707107, 0.707107, -0.707107, 0.707107, -66.074196, -1734.12561)" class="st99" width="6.882" height="6.882" style="fill: rgb(65, 184, 187);"/>
  <rect x="944.266" y="320.692" transform="matrix(0.707107, 0.707107, -0.707107, 0.707107, 158.440811, -2075.90332)" class="st0" width="6.882" height="6.882" style="fill: rgb(255, 255, 255);"/>
  <rect x="446.184" y="298.266" transform="matrix(0.707107, 0.707107, -0.707107, 0.707107, -3.292115, -1730.253052)" class="st0" width="6.882" height="6.882" style="fill: rgb(255, 255, 255);"/>
  <rect x="733.408" y="132.302" transform="matrix(0.544668, 0.838651, -0.838651, 0.544668, 99.547836, -2056.373047)" class="st0" width="4.534" height="4.534" style="fill: rgb(255, 255, 255);"/>
  <rect x="886.134" y="522.775" transform="matrix(0.707107, 0.707107, -0.707107, 0.707107, 284.345001, -1975.58374)" class="st0" width="6.882" height="6.882" style="fill: rgb(255, 255, 255);"/>
  <rect x="678.061" y="422.381" transform="matrix(0.707107, 0.707107, -0.707107, 0.707107, 152.411407, -1857.857178)" class="st99" width="6.882" height="6.882" style="fill: rgb(65, 184, 187);"/>
  <rect x="333.912" y="276.263" transform="matrix(0.544668, 0.838651, -0.838651, 0.544668, 38.317097, -1655.830933)" class="st0" width="4.534" height="4.534" style="fill: rgb(255, 255, 255);"/>
  <rect x="1091.529" y="541.028" transform="matrix(0.544668, 0.838651, -0.838651, 0.544668, 605.352478, -2170.625)" class="st0" width="4.534" height="4.534" style="fill: rgb(255, 255, 255);"/>
  <rect x="876.883" y="437.47" transform="matrix(0.544668, 0.838651, -0.838651, 0.544668, 420.760193, -2037.732666)" class="st0" width="4.534" height="4.534" style="fill: rgb(255, 255, 255);"/>
  <rect x="331.321" y="488.804" transform="matrix(0.544668, 0.838651, -0.838651, 0.544668, 215.404617, -1556.848511)" class="st0" width="4.534" height="4.534" style="fill: rgb(255, 255, 255);"/>
  <rect x="220.962" y="397.634" transform="matrix(0.544668, 0.838651, -0.838651, 0.544668, 88.737282, -1505.818237)" class="st0" width="4.534" height="4.534" style="fill: rgb(255, 255, 255);"/>
  <rect x="472.902" y="258.594" transform="matrix(0.707107, 0.707107, -0.707107, 0.707107, -23.5187, -1760.763916)" class="st108" width="6.882" height="6.882" style="fill: rgb(174, 201, 20);"/>
  <rect x="1025.39" y="449.261" transform="matrix(0.707107, 0.707107, -0.707107, 0.707107, 273.134766, -2095.630615)" class="st108" width="6.882" height="6.882" style="fill: rgb(174, 201, 20);"/>
  <rect x="669.965" y="471.768" transform="matrix(0.707107, 0.707107, -0.707107, 0.707107, 184.962311, -1837.666626)" class="st108" width="6.882" height="6.882" style="fill: rgb(174, 201, 20);"/>
  <rect x="804.362" y="550.302" transform="matrix(0.707107, 0.707107, -0.707107, 0.707107, 279.859253, -1909.698853)" class="st108" width="6.882" height="6.882" style="fill: rgb(174, 201, 20);"/>
  <rect x="618.958" y="559.208" transform="matrix(0.707107, 0.707107, -0.707107, 0.707107, 231.85231, -1775.988647)" class="st108" width="6.882" height="6.882" style="fill: rgb(174, 201, 20);"/>
</svg>