<?xml version="1.0" standalone="no"?>
<!DOCTYPE svg PUBLIC "-//W3C//DTD SVG 20010904//EN"
 "http://www.w3.org/TR/2001/REC-SVG-20010904/DTD/svg10.dtd">
<svg version="1.0" xmlns="http://www.w3.org/2000/svg"
 width="260.000000pt" height="260.000000pt" viewBox="0 0 260.000000 260.000000"
 preserveAspectRatio="xMidYMid meet">
<metadata>
Created by potrace 1.11, written by Peter Selinger 2001-2013
</metadata>
<g transform="translate(0.000000,260.000000) scale(0.100000,-0.100000)"
fill="#000000" stroke="none">
<path d="M886 2273 c-29 -8 -97 -53 -118 -77 -44 -53 -52 -87 -58 -245 l-5
-155 -337 -215 c-186 -119 -345 -221 -354 -226 -14 -9 -15 -14 -4 -35 48 -89
347 -286 582 -384 21 -8 38 -21 39 -28 4 -78 58 -213 119 -303 33 -48 109
-122 168 -165 130 -93 323 -137 491 -111 265 41 488 249 551 513 10 44 20 82
22 83 2 1 46 22 98 46 123 57 215 109 320 183 89 63 200 164 200 183 0 5 -87
65 -192 132 -350 222 -499 318 -508 327 -5 5 -10 73 -11 151 -1 125 -4 147
-24 190 -27 56 -62 95 -108 120 -29 16 -71 18 -442 20 -225 0 -419 -1 -429 -4z
m780 -162 c5 -1 20 -10 32 -21 21 -19 22 -30 22 -155 l0 -134 -57 -21 c-128
-48 -218 -64 -358 -65 -146 0 -258 21 -387 72 l-38 15 0 132 c0 153 5 166 71
175 32 4 634 6 715 2z m-813 -470 c49 -21 185 -61 232 -68 17 -2 48 -8 70 -13
42 -10 289 -6 340 5 89 18 168 40 237 67 l77 29 83 -54 c46 -30 88 -56 94 -58
5 -2 61 -38 124 -80 63 -41 141 -90 173 -109 31 -19 57 -37 57 -40 0 -9 -161
-107 -254 -154 -168 -86 -382 -151 -576 -175 -78 -10 -403 -7 -455 4 -16 3
-64 13 -105 21 -215 44 -413 125 -599 247 l-84 55 89 57 c49 32 107 69 129 84
22 14 48 30 57 36 42 25 177 112 213 137 22 15 43 28 47 28 3 0 26 -9 51 -19z
m83 -802 c137 -27 203 -33 364 -33 134 0 241 7 294 19 11 3 32 7 46 9 60 12
87 17 119 26 19 5 36 8 38 6 2 -2 -15 -40 -38 -86 -97 -194 -277 -300 -489
-287 -133 8 -237 56 -335 155 -67 68 -152 246 -103 216 6 -4 53 -15 104 -25z"/>
</g>
</svg>
