<?xml version="1.0" encoding="UTF-8" standalone="no"?>
<svg
   xmlns:dc="http://purl.org/dc/elements/1.1/"
   xmlns:cc="http://creativecommons.org/ns#"
   xmlns:rdf="http://www.w3.org/1999/02/22-rdf-syntax-ns#"
   xmlns:svg="http://www.w3.org/2000/svg"
   xmlns="http://www.w3.org/2000/svg"
   height="32.099998"
   width="67.343323"
   xml:space="preserve"
   viewBox="0 0 67.34332 32.099999"
   y="0px"
   x="0px"
   id="Livello_2_1_"
   version="1.1"><metadata
     id="metadata4506"><rdf:RDF><cc:Work
         rdf:about=""><dc:format>image/svg+xml</dc:format><dc:type
           rdf:resource="http://purl.org/dc/dcmitype/StillImage" /><dc:title></dc:title></cc:Work></rdf:RDF></metadata><defs
     id="defs4504" /><style
     id="style4342"
     type="text/css">
	.st0{fill:#1F1F1F;}
	.st1{fill:#FFFFFF;}
	.st2{fill:#95C11F;}
	.st3{fill:none;}
	.st4{fill:none;stroke:#95C11F;stroke-width:6;stroke-miterlimit:10;}
	.st5{fill:none;stroke:#95C11F;stroke-width:5;stroke-miterlimit:10;}
	.st6{fill:none;stroke:#95C11F;stroke-width:8;stroke-miterlimit:10;}
	.st7{fill:none;stroke:#1F1F1F;stroke-width:6;stroke-miterlimit:10;}
	.st8{fill:none;stroke:#1F1F1F;stroke-width:5;stroke-miterlimit:10;}
	.st9{fill:none;stroke:#1F1F1F;stroke-width:8;stroke-miterlimit:10;}
	.st10{fill:#4D4D4D;}
</style><g
     transform="matrix(0.31750742,0,0,0.31750742,-99.607317,-26.575876)"
     id="g4428"><g
       transform="translate(-1.183499,-107.69841)"
       id="g4484"><g
         id="g4486"><polygon
           style="fill:#95c11f"
           id="polygon4488"
           points="314.9,272 343.7,272 343.7,277.3 314.9,277.3 314.9,282.2 343.7,282.2 343.7,286.6 314.9,286.6 314.9,292.5 349.6,292.5 349.6,277.6 395.1,277.6 395.1,289.6 402.9,289.6 402.9,259.7 395.1,259.7 395.1,271.7 349.6,271.7 349.6,256.8 314.9,256.8 314.9,262.7 343.7,262.7 343.7,267.1 314.9,267.1 "
           class="st2" /><g
           id="g4490"><path
             style="fill:#1f1f1f"
             id="path4492"
             d="m 493,275.6 0,-2 c 0,-6.1 4.7,-11 10.4,-11 l 23.6,0 0,-5.9 -23.6,0 c -8.4,0 -15.3,6.6 -16.2,15.1 l -40.5,0 0,-12.2 -7.7,0 0,29.8 7.8,0 0,-11.8 40.5,0 c 1,8.3 7.8,14.7 16.1,14.7 l 23.6,0 0,-5.9 -23.6,0 c -5.7,0.2 -10.4,-4.7 -10.4,-10.8 z"
             class="st0" /><rect
             style="fill:#1f1f1f"
             id="rect4494"
             height="4.9000001"
             width="18.4"
             class="st0"
             y="277.10001"
             x="508.60001" /><rect
             style="fill:#1f1f1f"
             id="rect4496"
             height="4.9000001"
             width="18.4"
             class="st0"
             y="267.29999"
             x="508.60001" /></g></g><path
         style="fill:#1f1f1f"
         id="path4498"
         d="m 441.9,239.1 c -1.2,0.4 -2.5,0.8 -3.7,1.1 -2,7.6 -8.9,13.3 -17.1,13.3 -8.2,0 -15.1,-5.6 -17.1,-13.3 -1.3,-0.3 -2.5,-0.7 -3.7,-1.1 -0.9,-0.3 -1.7,-0.6 -2.6,-0.9 1.2,11.9 11.2,21.1 23.4,21.1 12.2,0 22.2,-9.3 23.4,-21.2 -0.8,0.3 -1.6,0.6 -2.6,1 l 0,0 z"
         class="st0" /><path
         style="fill:#95c11f"
         id="path4500"
         d="m 466,223.7 -10.4,-6.6 -11.7,-7.5 -2.5,-1.6 0,0 0,0 0,0 0,-2.9 0,-5.5 c 0,-4.5 -3.7,-8.2 -8.2,-8.2 l -24.4,0 c -4.5,0 -8.2,3.7 -8.2,8.2 l 0,5.5 0,2.9 0,0 0,0 -2.5,1.6 -11.7,7.5 -10.4,6.6 c -0.6,0.9 2.6,3.5 3.1,4 5.5,4.5 11.7,8 18.4,10.6 0.9,0.3 1.7,0.6 2.6,0.9 1.2,0.4 2.5,0.8 3.7,1.1 5.5,1.5 11.2,2.3 17.1,2.3 5.9,0 11.7,-0.8 17.1,-2.3 1.3,-0.3 2.5,-0.7 3.7,-1.1 l 0.1,0 c 0.8,-0.3 1.7,-0.6 2.5,-0.9 0.2,-0.1 0.4,-0.1 0.6,-0.2 0.4,-0.1 0.7,-0.3 1.1,-0.4 0.7,-0.3 1.4,-0.6 2.1,-0.9 0.4,-0.2 0.8,-0.4 1.2,-0.6 0.6,-0.3 1.3,-0.6 1.9,-0.9 0.4,-0.2 0.8,-0.4 1.1,-0.6 0.7,-0.4 1.4,-0.8 2.1,-1.2 0.3,-0.2 0.6,-0.3 0.9,-0.5 0.9,-0.6 1.9,-1.2 2.8,-1.8 0.3,-0.2 0.5,-0.4 0.8,-0.6 0.7,-0.5 1.3,-0.9 1.9,-1.4 0.3,-0.3 0.7,-0.5 1,-0.8 0.3,-0.2 0.6,-0.5 0.9,-0.7 0.1,-0.1 0.4,-0.3 0.7,-0.6 1.3,-1.1 3.1,-2.8 2.6,-3.4 z m -59.6,-24.1 c 0,-1.3 1.1,-2.4 2.4,-2.4 l 24.4,0 c 1.3,0 2.4,1.1 2.4,2.4 l 0,8.3 c -4.6,2.1 -9.5,3.2 -14.6,3.2 -5.1,0 -10,-1.1 -14.6,-3.2 l 0,-8.3 0,0 z m 49.2,26.1 c -0.1,0.1 -0.3,0.2 -0.4,0.3 -0.1,0.1 -0.2,0.2 -0.3,0.2 -0.8,0.6 -1.7,1.1 -2.5,1.6 -0.1,0.1 -0.3,0.2 -0.4,0.2 l -0.4,0.2 c -0.7,0.4 -1.3,0.8 -1.9,1.1 -0.3,0.1 -0.6,0.3 -0.8,0.4 l -0.2,0.1 c -0.6,0.3 -1.2,0.6 -1.8,0.9 -0.4,0.2 -0.7,0.3 -1.1,0.5 -0.5,0.2 -1,0.4 -1.5,0.7 -0.1,0 -0.2,0.1 -0.3,0.1 l -0.4,0.2 c -0.2,0.1 -0.4,0.2 -0.6,0.2 -1,0.4 -1.9,0.7 -2.8,1 -0.1,0 -0.1,0 -0.2,0.1 -0.4,0.1 -0.9,0.3 -1.3,0.4 -5.7,1.7 -11.6,2.6 -17.6,2.6 -6,0 -11.9,-0.9 -17.6,-2.6 -0.5,-0.1 -0.9,-0.3 -1.4,-0.4 -1.4,-0.5 -2.8,-1 -4.2,-1.6 -4.5,-1.9 -8.7,-4.3 -12.7,-7.2 l 4.5,-2.9 13.9,-8.9 0,0 c 0.1,0 0.1,-0.1 0.2,-0.1 1.9,0.9 3.9,1.6 5.9,2.2 3.7,1.1 7.6,1.7 11.5,1.7 3.9,0 7.8,-0.6 11.5,-1.7 2,-0.6 4,-1.3 5.9,-2.2 l 0.1,0.1 c 0.1,0 0.1,0.1 0.2,0.1 l 13.8,8.8 4.5,2.8 c -0.8,0.6 -1.2,0.9 -1.6,1.1 z"
         class="st2" /></g></g></svg>